<svg width="208" height="52" viewBox="0 0 208 52" fill="none" xmlns="http://www.w3.org/2000/svg">
<g filter="url(#filter0_d_505_161)">
<rect x="4" width="200" height="44" rx="20" fill="url(#paint0_linear_505_161)" fill-opacity="0.8" shape-rendering="crispEdges"/>
<rect x="4.5" y="0.5" width="199" height="43" rx="19.5" stroke="url(#paint1_radial_505_161)" shape-rendering="crispEdges"/>
</g>
<path d="M72.6835 29.12C71.6435 29.12 70.6435 28.9533 69.6835 28.62C68.7368 28.2733 68.0035 27.8333 67.4835 27.3L68.0635 26.16C68.5568 26.64 69.2168 27.0467 70.0435 27.38C70.8835 27.7 71.7635 27.86 72.6835 27.86C73.5635 27.86 74.2768 27.7533 74.8235 27.54C75.3835 27.3133 75.7902 27.0133 76.0435 26.64C76.3102 26.2667 76.4435 25.8533 76.4435 25.4C76.4435 24.8533 76.2835 24.4133 75.9635 24.08C75.6568 23.7467 75.2502 23.4867 74.7435 23.3C74.2368 23.1 73.6768 22.9267 73.0635 22.78C72.4502 22.6333 71.8368 22.48 71.2235 22.32C70.6102 22.1467 70.0435 21.92 69.5235 21.64C69.0168 21.36 68.6035 20.9933 68.2835 20.54C67.9768 20.0733 67.8235 19.4667 67.8235 18.72C67.8235 18.0267 68.0035 17.3933 68.3635 16.82C68.7368 16.2333 69.3035 15.7667 70.0635 15.42C70.8235 15.06 71.7968 14.88 72.9835 14.88C73.7702 14.88 74.5502 14.9933 75.3235 15.22C76.0968 15.4333 76.7635 15.7333 77.3235 16.12L76.8235 17.3C76.2235 16.9 75.5835 16.6067 74.9035 16.42C74.2368 16.2333 73.5902 16.14 72.9635 16.14C72.1235 16.14 71.4302 16.2533 70.8835 16.48C70.3368 16.7067 69.9302 17.0133 69.6635 17.4C69.4102 17.7733 69.2835 18.2 69.2835 18.68C69.2835 19.2267 69.4368 19.6667 69.7435 20C70.0635 20.3333 70.4768 20.5933 70.9835 20.78C71.5035 20.9667 72.0702 21.1333 72.6835 21.28C73.2968 21.4267 73.9035 21.5867 74.5035 21.76C75.1168 21.9333 75.6768 22.16 76.1835 22.44C76.7035 22.7067 77.1168 23.0667 77.4235 23.52C77.7435 23.9733 77.9035 24.5667 77.9035 25.3C77.9035 25.98 77.7168 26.6133 77.3435 27.2C76.9702 27.7733 76.3968 28.24 75.6235 28.6C74.8635 28.9467 73.8835 29.12 72.6835 29.12ZM85.1682 29.1C84.2748 29.1 83.4948 28.9333 82.8282 28.6C82.1615 28.2667 81.6415 27.7667 81.2682 27.1C80.9082 26.4333 80.7282 25.6 80.7282 24.6V18.5H82.1482V24.44C82.1482 25.56 82.4215 26.4067 82.9682 26.98C83.5282 27.54 84.3082 27.82 85.3082 27.82C86.0415 27.82 86.6748 27.6733 87.2082 27.38C87.7548 27.0733 88.1682 26.6333 88.4482 26.06C88.7415 25.4867 88.8882 24.8 88.8882 24V18.5H90.3082V29H88.9482V26.12L89.1682 26.64C88.8348 27.4133 88.3148 28.02 87.6082 28.46C86.9148 28.8867 86.1015 29.1 85.1682 29.1ZM99.6857 29.1C98.7657 29.1 97.939 28.8933 97.2057 28.48C96.4723 28.0533 95.8923 27.44 95.4657 26.64C95.039 25.84 94.8257 24.8733 94.8257 23.74C94.8257 22.5933 95.039 21.6267 95.4657 20.84C95.9057 20.04 96.4923 19.4333 97.2257 19.02C97.959 18.6067 98.779 18.4 99.6857 18.4C100.686 18.4 101.579 18.6267 102.366 19.08C103.166 19.52 103.792 20.14 104.246 20.94C104.699 21.74 104.926 22.6733 104.926 23.74C104.926 24.7933 104.699 25.7267 104.246 26.54C103.792 27.34 103.166 27.9667 102.366 28.42C101.579 28.8733 100.686 29.1 99.6857 29.1ZM94.2657 29V14.16H95.6857V21.6L95.4857 23.72L95.6257 25.84V29H94.2657ZM99.5857 27.84C100.332 27.84 100.999 27.6733 101.586 27.34C102.172 26.9933 102.639 26.5133 102.986 25.9C103.332 25.2733 103.506 24.5533 103.506 23.74C103.506 22.9133 103.332 22.1933 102.986 21.58C102.639 20.9667 102.172 20.4933 101.586 20.16C100.999 19.8133 100.332 19.64 99.5857 19.64C98.839 19.64 98.1657 19.8133 97.5657 20.16C96.979 20.4933 96.5123 20.9667 96.1657 21.58C95.8323 22.1933 95.6657 22.9133 95.6657 23.74C95.6657 24.5533 95.8323 25.2733 96.1657 25.9C96.5123 26.5133 96.979 26.9933 97.5657 27.34C98.1657 27.6733 98.839 27.84 99.5857 27.84ZM120.94 18.4C121.794 18.4 122.534 18.5667 123.16 18.9C123.8 19.22 124.294 19.7133 124.64 20.38C125 21.0467 125.18 21.8867 125.18 22.9V29H123.76V23.04C123.76 21.9333 123.494 21.1 122.96 20.54C122.44 19.9667 121.7 19.68 120.74 19.68C120.02 19.68 119.394 19.8333 118.86 20.14C118.34 20.4333 117.934 20.8667 117.64 21.44C117.36 22 117.22 22.68 117.22 23.48V29H115.8V23.04C115.8 21.9333 115.534 21.1 115 20.54C114.467 19.9667 113.72 19.68 112.76 19.68C112.054 19.68 111.434 19.8333 110.9 20.14C110.367 20.4333 109.954 20.8667 109.66 21.44C109.38 22 109.24 22.68 109.24 23.48V29H107.82V18.5H109.18V21.34L108.96 20.84C109.28 20.08 109.794 19.4867 110.5 19.06C111.22 18.62 112.067 18.4 113.04 18.4C114.067 18.4 114.94 18.66 115.66 19.18C116.38 19.6867 116.847 20.4533 117.06 21.48L116.5 21.26C116.807 20.4067 117.347 19.72 118.12 19.2C118.907 18.6667 119.847 18.4 120.94 18.4ZM129.031 29V18.5H130.451V29H129.031ZM129.751 16.18C129.458 16.18 129.211 16.08 129.011 15.88C128.811 15.68 128.711 15.44 128.711 15.16C128.711 14.88 128.811 14.6467 129.011 14.46C129.211 14.26 129.458 14.16 129.751 14.16C130.045 14.16 130.291 14.2533 130.491 14.44C130.691 14.6267 130.791 14.86 130.791 15.14C130.791 15.4333 130.691 15.68 130.491 15.88C130.305 16.08 130.058 16.18 129.751 16.18ZM137.722 29.1C136.736 29.1 135.976 28.8333 135.442 28.3C134.909 27.7667 134.642 27.0133 134.642 26.04V16.18H136.062V25.96C136.062 26.5733 136.216 27.0467 136.522 27.38C136.842 27.7133 137.296 27.88 137.882 27.88C138.509 27.88 139.029 27.7 139.442 27.34L139.942 28.36C139.662 28.6133 139.322 28.8 138.922 28.92C138.536 29.04 138.136 29.1 137.722 29.1ZM132.762 19.68V18.5H139.262V19.68H132.762Z" fill="white"/>
<defs>
<filter id="filter0_d_505_161" x="0" y="0" width="208" height="52" filterUnits="userSpaceOnUse" color-interpolation-filters="sRGB">
<feFlood flood-opacity="0" result="BackgroundImageFix"/>
<feColorMatrix in="SourceAlpha" type="matrix" values="0 0 0 0 0 0 0 0 0 0 0 0 0 0 0 0 0 0 127 0" result="hardAlpha"/>
<feOffset dy="4"/>
<feGaussianBlur stdDeviation="2"/>
<feComposite in2="hardAlpha" operator="out"/>
<feColorMatrix type="matrix" values="0 0 0 0 0 0 0 0 0 0 0 0 0 0 0 0 0 0 0.25 0"/>
<feBlend mode="normal" in2="BackgroundImageFix" result="effect1_dropShadow_505_161"/>
<feBlend mode="normal" in="SourceGraphic" in2="effect1_dropShadow_505_161" result="shape"/>
</filter>
<linearGradient id="paint0_linear_505_161" x1="204" y1="44" x2="77.8086" y2="-76.9849" gradientUnits="userSpaceOnUse">
<stop stop-color="#2DCFCC" stop-opacity="0"/>
<stop offset="1" stop-color="#00F5F1" stop-opacity="0.4"/>
</linearGradient>
<radialGradient id="paint1_radial_505_161" cx="0" cy="0" r="1" gradientUnits="userSpaceOnUse" gradientTransform="translate(734.709 223.5) rotate(-161.959) scale(768.491 1608.46)">
<stop stop-color="white"/>
<stop offset="1" stop-color="white" stop-opacity="0"/>
</radialGradient>
</defs>
</svg>
