<svg width="25" height="25" viewBox="0 0 25 25" fill="none" xmlns="http://www.w3.org/2000/svg">
<path d="M7.06117 17.0863C6.48548 17.0863 5.96214 16.6007 5.96214 16.0072C5.96214 15.4137 6.43315 14.9281 7.06117 14.9281C7.68918 14.9281 8.16019 15.4137 8.16019 16.0072C8.16019 16.6007 7.63685 17.0863 7.06117 17.0863ZM20.5635 11.205C20.4588 10.3417 19.9355 9.64029 19.2551 9.10072L18.9935 8.88489L18.7841 9.15468C18.3654 9.64029 18.2084 10.5036 18.2608 11.1511C18.3131 11.6367 18.4701 12.1223 18.7318 12.5C18.5224 12.6079 18.2608 12.7158 18.0514 12.8237C17.5804 12.9856 17.1094 13.0396 16.6384 13.0396H3.08374L3.0314 13.3633C2.92673 14.3885 3.08374 15.4676 3.50241 16.4388L3.71175 16.8165V16.8705C4.96778 19.0288 7.21817 20 9.6779 20C14.388 20 18.2608 17.8957 20.0925 13.3633C21.2962 13.4173 22.4999 13.0935 23.0756 11.9065L23.2326 11.6367L22.9709 11.4748C22.2905 11.0432 21.3485 10.9892 20.5635 11.205ZM13.8123 10.3417H11.7713V12.446H13.8123V10.3417ZM13.8123 7.69784H11.7713V9.80216H13.8123V7.69784ZM13.8123 5H11.7713V7.10432H13.8123V5ZM16.3244 10.3417H14.2833V12.446H16.3244V10.3417ZM8.73587 10.3417H6.69482V12.446H8.73587V10.3417ZM11.3003 10.3417H9.25922V12.446H11.3003V10.3417ZM6.22381 10.3417H4.18276V12.446H6.22381V10.3417ZM11.3003 7.69784H9.25922V9.80216H11.3003V7.69784ZM8.73587 7.69784H6.69482V9.80216H8.73587V7.69784Z" fill="white"/>
</svg>
