<svg width="25" height="25" viewBox="0 0 25 25" fill="none" xmlns="http://www.w3.org/2000/svg">
<path d="M2 12.5C2 6.70101 6.70101 2 12.5 2V2C18.299 2 23 6.70101 23 12.5V12.5C23 18.299 18.299 23 12.5 23V23C6.70101 23 2 18.299 2 12.5V12.5Z" fill="white"/>
<path d="M8.5309 17.15C7.9809 17.15 7.4709 17.045 7.0009 16.835C6.5309 16.615 6.1209 16.32 5.7709 15.95C5.4309 15.57 5.1609 15.135 4.9609 14.645C4.7709 14.145 4.6759 13.62 4.6759 13.07C4.6759 12.33 4.8409 11.66 5.1709 11.06C5.5009 10.46 5.9559 9.98 6.5359 9.62C7.1159 9.25 7.7659 9.065 8.4859 9.065C9.2259 9.065 9.8809 9.25 10.4509 9.62C11.0209 9.99 11.4709 10.48 11.8009 11.09C12.1409 11.69 12.3109 12.35 12.3109 13.07C12.3109 13.13 12.3109 13.19 12.3109 13.25C12.3109 13.31 12.3059 13.36 12.2959 13.4H5.4559C5.4959 13.99 5.6609 14.525 5.9509 15.005C6.2409 15.485 6.6109 15.865 7.0609 16.145C7.5209 16.415 8.0209 16.55 8.5609 16.55C9.1009 16.55 9.6109 16.41 10.0909 16.13C10.5709 15.85 10.9059 15.49 11.0959 15.05L11.7559 15.23C11.6059 15.6 11.3659 15.93 11.0359 16.22C10.7159 16.51 10.3359 16.74 9.8959 16.91C9.4659 17.07 9.0109 17.15 8.5309 17.15ZM5.4259 12.815H11.5909C11.5509 12.205 11.3909 11.665 11.1109 11.195C10.8309 10.725 10.4609 10.355 10.0009 10.085C9.5509 9.815 9.0509 9.68 8.5009 9.68C7.9509 9.68 7.4509 9.815 7.0009 10.085C6.5509 10.355 6.1859 10.725 5.9059 11.195C5.6259 11.665 5.4659 12.205 5.4259 12.815ZM13.6227 9.2L16.1127 12.425L16.2327 12.635L16.3527 12.425L18.8277 9.2H19.6977L16.6677 13.115L19.6827 17H18.8127L16.3527 13.79L16.2327 13.595L16.1127 13.79L13.6377 17H12.7827L15.7827 13.115L12.7677 9.2H13.6227Z" fill="black"/>
</svg>
