<svg width="25" height="25" viewBox="0 0 25 25" fill="none" xmlns="http://www.w3.org/2000/svg">
<path d="M10.5 5C9.12 5 8 6.16666 8 7.60416C8 9.04059 9.11833 10.2066 10.4969 10.2083C9.11833 10.2101 8 11.3761 8 12.8125C8 14.25 9.12 15.4166 10.5 15.4166H13V10.2083V5H10.5Z" fill="white"/>
<path d="M10.5 20.625C11.88 20.625 13 19.4583 13 18.0208V15.4166H10.5C9.12 15.4166 8 16.5833 8 18.0208C8 19.4583 9.12 20.625 10.5 20.625Z" fill="white"/>
<path d="M13 5H15.5C16.88 5 18 6.16666 18 7.60416C18 9.04059 16.8817 10.2066 15.5031 10.2083C16.8817 10.2101 18 11.3761 18 12.8125C18 14.25 16.88 15.4166 15.5 15.4166C14.12 15.4166 13 14.25 13 12.8125C13 11.3766 14.1175 10.211 15.4953 10.2083H13V5Z" fill="white"/>
</svg>
