<svg width="15" height="15" viewBox="0 0 15 15" fill="none" xmlns="http://www.w3.org/2000/svg">
<g clip-path="url(#clip0_297_468)">
<path fill-rule="evenodd" clip-rule="evenodd" d="M7.50027 0.3125C5.71979 0.313424 3.99769 0.944036 2.6419 2.09158C1.28611 3.23912 0.385046 4.82876 0.0998221 6.57625C-0.185402 8.32374 0.163811 10.1151 1.08503 11.6301C2.00624 13.1451 3.43938 14.2849 5.12819 14.8456C5.50077 14.9148 5.6411 14.6838 5.6411 14.4875C5.6411 14.2912 5.63365 13.7219 5.63117 13.0995C3.54473 13.5502 3.10385 12.2191 3.10385 12.2191C2.76356 11.3547 2.27175 11.1274 2.27175 11.1274C1.59118 10.6656 2.32268 10.6742 2.32268 10.6742C3.07653 10.7273 3.4727 11.4436 3.4727 11.4436C4.14086 12.5833 5.22754 12.2536 5.65476 12.061C5.72183 11.5782 5.91681 11.2497 6.13167 11.0632C4.465 10.8755 2.71388 10.2359 2.71388 7.37839C2.70355 6.63732 2.98012 5.92066 3.48636 5.37668C3.40936 5.18898 3.15228 4.43077 3.55963 3.40089C3.55963 3.40089 4.1893 3.20085 5.62248 4.16528C6.85177 3.83101 8.14877 3.83101 9.37807 4.16528C10.81 3.20085 11.4384 3.40089 11.4384 3.40089C11.847 4.4283 11.5899 5.18651 11.5129 5.37668C12.0208 5.92074 12.2979 6.63866 12.2867 7.38086C12.2867 10.2445 10.5318 10.8755 8.86266 11.0595C9.13092 11.2917 9.37062 11.7449 9.37062 12.4413C9.37062 13.4391 9.36192 14.2418 9.36192 14.4875C9.36192 14.6863 9.49729 14.9185 9.87732 14.8456C11.5663 14.2848 12.9996 13.1448 13.9208 11.6296C14.842 10.1144 15.191 8.32269 14.9055 6.57503C14.6199 4.82738 13.7184 3.23772 12.3622 2.09038C11.0059 0.943035 9.28345 0.312838 7.50275 0.3125H7.50027Z" fill="white"/>
<path d="M5.01746 12.4844C5.01746 12.5449 4.94791 12.5968 4.85849 12.598C4.76907 12.5993 4.6958 12.5499 4.6958 12.4894C4.6958 12.4289 4.76534 12.377 4.85476 12.3758C4.94418 12.3745 5.01746 12.4227 5.01746 12.4844Z" fill="white"/>
<path d="M5.5885 12.3894C5.59968 12.45 5.53758 12.5129 5.44816 12.5278C5.35874 12.5426 5.2805 12.5068 5.26933 12.4475C5.25815 12.3882 5.32273 12.324 5.40966 12.3079C5.4966 12.2919 5.57732 12.3289 5.5885 12.3894Z" fill="white"/>
<path d="M4.40386 12.4425C4.38523 12.5005 4.30078 12.5265 4.21633 12.5018C4.13188 12.4771 4.07599 12.4079 4.09213 12.3486C4.10828 12.2894 4.19397 12.2622 4.27967 12.2894C4.36536 12.3165 4.42 12.382 4.40386 12.4425Z" fill="white"/>
<path d="M3.84126 12.2005C3.80028 12.2462 3.71707 12.2339 3.64876 12.1721C3.58046 12.1104 3.56431 12.0264 3.60529 11.982C3.64628 11.9375 3.72949 11.9499 3.80028 12.0104C3.87107 12.0709 3.88473 12.1561 3.84126 12.2005V12.2005Z" fill="white"/>
<path d="M3.44005 11.7856C3.3941 11.8177 3.31585 11.7856 3.27238 11.7214C3.26036 11.7099 3.2508 11.6961 3.24427 11.6808C3.23774 11.6655 3.23438 11.6491 3.23438 11.6325C3.23438 11.6159 3.23774 11.5995 3.24427 11.5842C3.2508 11.5689 3.26036 11.5551 3.27238 11.5436C3.31833 11.5127 3.39658 11.5436 3.44005 11.6066C3.48351 11.6695 3.48476 11.7535 3.44005 11.7856V11.7856Z" fill="white"/>
<path d="M3.14452 11.3572C3.1188 11.3701 3.08937 11.3737 3.06128 11.3674C3.03319 11.3611 3.00818 11.3453 2.99052 11.3226C2.94209 11.2708 2.93214 11.1991 2.9694 11.167C3.00666 11.1349 3.07373 11.1498 3.12216 11.2016C3.1706 11.2535 3.18178 11.3251 3.14452 11.3572Z" fill="white"/>
<path d="M2.84023 11.0199C2.82408 11.0569 2.76447 11.0681 2.71603 11.0421C2.6676 11.0162 2.63159 10.968 2.64897 10.9298C2.66636 10.8915 2.72473 10.8816 2.77317 10.9075C2.8216 10.9335 2.85886 10.9829 2.84023 11.0199Z" fill="white"/>
</g>
<defs>
<clipPath id="clip0_297_468">
<rect width="15" height="15" fill="white"/>
</clipPath>
</defs>
</svg>
