<svg width="15" height="15" viewBox="0 0 15 15" fill="none" xmlns="http://www.w3.org/2000/svg">
<g clip-path="url(#clip0_297_470)">
<path fill-rule="evenodd" clip-rule="evenodd" d="M10.527 4.09243C9.7526 3.35387 8.71916 2.95151 7.64989 2.96805C5.69326 2.96805 4.0315 4.28808 3.43899 6.06558C3.12482 6.99705 3.12482 8.00573 3.43899 8.93719H3.44174C4.037 10.712 5.69601 12.032 7.65265 12.032C8.66267 12.032 9.52977 11.7736 10.2018 11.3173V11.3155C10.9927 10.7919 11.5329 9.96789 11.701 9.03642H7.6499V6.14831H14.7241C14.8123 6.64987 14.8537 7.16245 14.8537 7.67228C14.8537 9.95344 14.0384 11.8821 12.6199 13.1883L12.6214 13.1894C11.3785 14.3359 9.67268 15 7.6499 15C4.81414 15 2.2209 13.4016 0.947708 10.869C-0.116036 8.7498 -0.116033 6.25302 0.947716 4.13379C2.22091 1.59842 4.81414 1.7135e-05 7.64989 1.7135e-05C9.51284 -0.0220295 11.3124 0.677952 12.6683 1.95115L10.527 4.09243Z" fill="white"/>
</g>
<defs>
<clipPath id="clip0_297_470">
<rect width="15" height="15" fill="white"/>
</clipPath>
</defs>
</svg>
