<svg width="18" height="18" viewBox="0 0 18 18" fill="none" xmlns="http://www.w3.org/2000/svg">
<g clip-path="url(#clip0_297_470)">
<path fill-rule="evenodd" clip-rule="evenodd" d="M12.6327 4.91077C11.7034 4.02449 10.4633 3.54167 9.18017 3.56151C6.83221 3.56151 4.83809 5.14555 4.12708 7.27855C3.75008 8.39631 3.75008 9.60672 4.12708 10.7245H4.13038C4.84469 12.8542 6.8355 14.4382 9.18347 14.4382C10.3955 14.4382 11.436 14.1282 12.2425 13.5807V13.5784C13.1916 12.9501 13.8397 11.9613 14.0415 10.8436H9.18017V7.37782H17.6693C17.7751 7.9797 17.8247 8.5948 17.8247 9.20659C17.8247 11.944 16.8464 14.2583 15.1442 15.8258L15.146 15.8272C13.6545 17.2029 11.6075 17.9999 9.18017 17.9999C5.77726 17.9999 2.66538 16.0818 1.13754 13.0427C-0.13895 10.4996 -0.138947 7.50347 1.13755 4.9604C2.66539 1.91796 5.77726 -0.000125922 9.18017 -0.000125922C11.4157 -0.0265819 13.5752 0.813396 15.2022 2.34123L12.6327 4.91077Z" fill="white"/>
</g>
<defs>
<clipPath id="clip0_297_470">
<rect width="18" height="18" fill="white"/>
</clipPath>
</defs>
</svg>
