<svg width="18" height="18" viewBox="0 0 18 18" fill="none" xmlns="http://www.w3.org/2000/svg">
<g clip-path="url(#clip0_297_471)">
<path fill-rule="evenodd" clip-rule="evenodd" d="M0 0H18V18H0V0ZM4.73286 15.0421C5.13159 15.8878 5.91709 16.5885 7.2702 16.5885C8.76851 16.5885 9.79548 15.7911 9.79548 14.0391V8.26374H8.10394V14.0152C8.10394 14.8609 7.75351 15.0783 7.19768 15.0783C6.61783 15.0783 6.37608 14.6797 6.11034 14.2085L4.73286 15.0421ZM12.0916 14.0634L10.7143 14.8609C11.2096 15.8396 12.2246 16.5887 13.7953 16.5887C15.4023 16.5887 16.5985 15.7551 16.5985 14.2325C16.5985 12.8189 15.7889 12.1907 14.3511 11.5744L13.9282 11.3932C13.2033 11.079 12.8891 10.8736 12.8891 10.3661C12.8891 9.95534 13.2033 9.6412 13.6987 9.6412C14.182 9.6412 14.4961 9.84657 14.7861 10.3661L16.1031 9.52034C15.5473 8.54163 14.7741 8.16703 13.6987 8.16703C12.1883 8.16703 11.2217 9.13369 11.2217 10.4024C11.2217 11.7798 12.0313 12.4323 13.2517 12.9517L13.6745 13.1331C14.4478 13.4713 14.9069 13.6767 14.9069 14.2567C14.9069 14.74 14.4599 15.0905 13.7591 15.0905C12.9254 15.0905 12.4542 14.6555 12.0916 14.0634Z" fill="white"/>
</g>
<defs>
<clipPath id="clip0_297_471">
<rect width="18" height="18" fill="white"/>
</clipPath>
</defs>
</svg>
