<svg width="15" height="15" viewBox="0 0 15 15" fill="none" xmlns="http://www.w3.org/2000/svg">
<g clip-path="url(#clip0_297_471)">
<path fill-rule="evenodd" clip-rule="evenodd" d="M0 0H15V15H0V0ZM3.94405 12.5351C4.27632 13.2398 4.93091 13.8238 6.0585 13.8238C7.30709 13.8238 8.1629 13.1592 8.1629 11.6992V6.88645H6.75329V11.6793C6.75329 12.3841 6.46126 12.5653 5.99807 12.5653C5.51486 12.5653 5.3134 12.233 5.09195 11.8404L3.94405 12.5351ZM10.0763 11.7195L8.9286 12.384C9.34136 13.1997 10.1872 13.8239 11.4961 13.8239C12.8353 13.8239 13.8321 13.1292 13.8321 11.8605C13.8321 10.6824 13.1574 10.1589 11.9592 9.64536L11.6068 9.49433C11.0028 9.23252 10.741 9.06131 10.741 8.6384C10.741 8.29612 11.0028 8.03433 11.4156 8.03433C11.8183 8.03433 12.08 8.20548 12.3217 8.6384L13.4192 7.93362C12.9561 7.11802 12.3117 6.80586 11.4156 6.80586C10.1569 6.80586 9.3514 7.6114 9.3514 8.66864C9.3514 9.81652 10.026 10.3602 11.0431 10.7931L11.3954 10.9443C12.0398 11.2261 12.4224 11.3973 12.4224 11.8806C12.4224 12.2834 12.05 12.5754 11.4659 12.5754C10.7712 12.5754 10.3785 12.2129 10.0763 11.7195Z" fill="white"/>
</g>
<defs>
<clipPath id="clip0_297_471">
<rect width="15" height="15" fill="white"/>
</clipPath>
</defs>
</svg>
