<svg width="25" height="25" viewBox="0 0 25 25" fill="none" xmlns="http://www.w3.org/2000/svg">
<path d="M12.4587 2.08132C12.4488 2.0466 12.4384 2.01933 12.4277 2C12.3954 2.4329 12.3793 2.59532 11.8958 3.02822C11.1547 3.51521 7.31988 6.20728 7.0138 11.6861C6.71331 16.7939 11.4126 19.8441 12.0504 20.2338C12.5032 21.1248 12.4599 22.6438 12.4599 22.6438L13.1204 22.8333C13.1204 22.8333 12.9915 21.3452 13.185 20.6417C13.2391 20.4227 13.3699 20.2315 13.5254 20.0715C13.6393 20.0044 13.9374 19.8208 14.3302 19.5191C14.3502 19.51 14.3613 19.5053 14.3613 19.5053L14.3604 19.4958C15.9247 18.285 18.9205 15.2443 17.9058 10.2655C16.896 6.5283 14.8246 4.73531 13.7825 3.83336C13.4781 3.56979 13.2615 3.38232 13.1849 3.24464C12.8144 2.81175 12.4598 2.05429 12.4598 2.05429L12.4604 2.08741L12.4587 2.08132Z" fill="white"/>
</svg>
