<svg width="15" height="15" viewBox="0 0 15 15" fill="none" xmlns="http://www.w3.org/2000/svg">
<g clip-path="url(#clip0_297_466)">
<path fill-rule="evenodd" clip-rule="evenodd" d="M7.43799 0.209229C3.72826 0.209229 3.95992 1.81799 3.95992 1.81799L3.96406 3.48466H7.50417V3.98507H2.55794C2.55794 3.98507 0.184082 3.71585 0.184082 7.45901C0.184082 11.2022 2.25604 11.0694 2.25604 11.0694H3.49259V9.33245C3.49259 9.33245 3.42594 7.26049 5.53146 7.26049H9.04262C9.04262 7.26049 11.0153 7.29238 11.0153 5.35396V2.14884C11.0153 2.14884 11.3148 0.209229 7.43799 0.209229ZM5.48597 1.32999C5.83819 1.32999 6.12286 1.61466 6.12286 1.96688C6.12286 2.31909 5.83819 2.60376 5.48597 2.60376C5.13376 2.60376 4.84908 2.31909 4.84908 1.96688C4.84908 1.61466 5.13376 1.32999 5.48597 1.32999Z" fill="white"/>
<mask id="path-2-outside-1_297_466" maskUnits="userSpaceOnUse" x="2.96045" y="2.8855" width="13" height="13" fill="black">
<rect fill="white" x="2.96045" y="2.8855" width="13" height="13"/>
<path fill-rule="evenodd" clip-rule="evenodd" d="M7.54314 14.7463C11.2529 14.7463 11.0212 13.1375 11.0212 13.1375L11.0171 11.4708H7.47697V10.9704H12.4232C12.4232 10.9704 14.7971 11.2396 14.7971 7.49649C14.7971 3.75334 12.7251 3.88608 12.7251 3.88608H11.4885V5.62305C11.4885 5.62305 11.5552 7.695 9.44967 7.695H5.93851C5.93851 7.695 3.96581 7.66312 3.96581 9.60154V12.8067C3.96581 12.8067 3.6663 14.7463 7.54314 14.7463V14.7463V14.7463V14.7463ZM9.49516 13.6255C9.14294 13.6255 8.85827 13.3408 8.85827 12.9886C8.85827 12.6364 9.14294 12.3517 9.49516 12.3517C9.84737 12.3517 10.132 12.6364 10.132 12.9886C10.132 13.3408 9.84737 13.6255 9.49516 13.6255V13.6255V13.6255V13.6255Z"/>
</mask>
<path d="M11.0212 13.1375L10.3212 13.1392L10.3213 13.1885L10.3284 13.2373L11.0212 13.1375ZM11.0171 11.4708L11.7171 11.4691L11.7153 10.7708H11.0171V11.4708ZM7.47697 11.4708H6.77697V12.1708H7.47697V11.4708ZM7.47697 10.9704V10.2704H6.77697V10.9704H7.47697ZM12.4232 10.9704L12.5021 10.2749L12.4628 10.2704H12.4232V10.9704ZM14.7971 7.49649L14.0971 7.49649V7.49649H14.7971ZM12.7251 3.88608V4.58608H12.7475L12.7699 4.58465L12.7251 3.88608ZM11.4885 3.88608V3.18608H10.7885V3.88608H11.4885ZM11.4885 5.62305H10.7885V5.63431L10.7889 5.64556L11.4885 5.62305ZM5.93851 7.695L5.9272 8.395H5.93851V7.695ZM3.96581 12.8067L4.65761 12.9135L4.66581 12.8604V12.8067H3.96581ZM10.132 12.9886L9.43205 12.9886L9.43205 12.9886L10.132 12.9886ZM7.54314 15.4463C9.4727 15.4463 10.5677 15.0321 11.1661 14.4391C11.4693 14.1386 11.6161 13.8185 11.6801 13.5524C11.7114 13.4222 11.722 13.3088 11.7238 13.2211C11.7247 13.1772 11.7234 13.1394 11.7213 13.1087C11.7203 13.0933 11.7191 13.0796 11.7178 13.0678C11.7172 13.0619 11.7165 13.0564 11.7159 13.0514C11.7156 13.0489 11.7153 13.0465 11.715 13.0442C11.7148 13.0431 11.7147 13.042 11.7145 13.0409C11.7144 13.0403 11.7143 13.0396 11.7143 13.0393C11.7142 13.0385 11.7141 13.0377 11.0212 13.1375C10.3284 13.2373 10.3283 13.2365 10.3281 13.2358C10.3281 13.2355 10.328 13.2348 10.3279 13.2343C10.3278 13.2333 10.3277 13.2323 10.3275 13.2314C10.3273 13.2295 10.3271 13.2277 10.3268 13.226C10.3264 13.2225 10.326 13.2193 10.3257 13.2165C10.3251 13.2107 10.3247 13.2061 10.3245 13.2025C10.324 13.1953 10.3241 13.192 10.3241 13.1921C10.3241 13.1925 10.3238 13.2048 10.3188 13.2253C10.3103 13.2609 10.2832 13.343 10.1806 13.4447C9.96736 13.656 9.32332 14.0463 7.54314 14.0463V15.4463ZM11.7212 13.1358L11.7171 11.4691L10.3171 11.4726L10.3212 13.1392L11.7212 13.1358ZM11.0171 10.7708H7.47697V12.1708H11.0171V10.7708ZM8.17697 11.4708V10.9704H6.77697V11.4708H8.17697ZM7.47697 11.6704H12.4232V10.2704H7.47697V11.6704ZM12.4232 10.9704C12.3443 11.666 12.3449 11.666 12.3454 11.6661C12.3456 11.6661 12.3462 11.6662 12.3466 11.6662C12.3473 11.6663 12.3482 11.6664 12.349 11.6665C12.3507 11.6667 12.3526 11.6669 12.3546 11.6671C12.3587 11.6675 12.3634 11.6679 12.3687 11.6684C12.3792 11.6693 12.3922 11.6703 12.4073 11.6713C12.4377 11.6731 12.4772 11.6747 12.5247 11.6747C12.6192 11.6748 12.7471 11.6688 12.8975 11.6463C13.1975 11.6015 13.5992 11.489 14.0018 11.2173C14.8457 10.6477 15.4971 9.52118 15.4971 7.49649H14.0971C14.0971 9.21496 13.5615 9.82545 13.2185 10.057C13.0276 10.1858 12.8358 10.24 12.6907 10.2617C12.6186 10.2725 12.561 10.2747 12.5257 10.2747C12.5083 10.2747 12.4968 10.2741 12.4924 10.2738C12.4902 10.2737 12.4898 10.2736 12.4914 10.2738C12.4921 10.2739 12.4934 10.274 12.4952 10.2741C12.4961 10.2742 12.4971 10.2743 12.4982 10.2745C12.4988 10.2745 12.4994 10.2746 12.5001 10.2747C12.5004 10.2747 12.5009 10.2748 12.501 10.2748C12.5016 10.2748 12.5021 10.2749 12.4232 10.9704ZM15.4971 7.49649C15.4971 5.50131 14.9418 4.36469 14.2111 3.75141C13.8547 3.4523 13.4916 3.30938 13.2103 3.2427C13.0703 3.20951 12.9501 3.19504 12.8595 3.18916C12.8141 3.18621 12.7758 3.18539 12.7457 3.18551C12.7306 3.18557 12.7175 3.18586 12.7066 3.18624C12.7011 3.18643 12.6962 3.18664 12.6918 3.18686C12.6896 3.18697 12.6876 3.18708 12.6857 3.18719C12.6847 3.18724 12.6838 3.1873 12.6829 3.18735C12.6825 3.18738 12.6818 3.18742 12.6816 3.18743C12.681 3.18747 12.6803 3.18751 12.7251 3.88608C12.7699 4.58465 12.7692 4.58469 12.7686 4.58472C12.7685 4.58474 12.7679 4.58477 12.7675 4.5848C12.7667 4.58484 12.766 4.58489 12.7653 4.58493C12.7639 4.58501 12.7626 4.58508 12.7614 4.58513C12.759 4.58525 12.757 4.58533 12.7555 4.58539C12.7524 4.58549 12.751 4.5855 12.7511 4.5855C12.7513 4.5855 12.7575 4.58548 12.7687 4.58621C12.7915 4.58769 12.8332 4.5921 12.8874 4.60495C12.9946 4.63036 13.1495 4.6882 13.3111 4.8238C13.6163 5.07993 14.0971 5.74852 14.0971 7.49649L15.4971 7.49649ZM12.7251 3.18608H11.4885V4.58608H12.7251V3.18608ZM10.7885 3.88608V5.62305H12.1885V3.88608H10.7885ZM11.4885 5.62305C10.7889 5.64556 10.7889 5.64522 10.7889 5.64488C10.7889 5.64478 10.7889 5.64446 10.7889 5.64426C10.7889 5.64385 10.7888 5.64348 10.7888 5.64314C10.7888 5.64245 10.7888 5.64188 10.7888 5.64142C10.7888 5.64051 10.7888 5.64005 10.7888 5.64004C10.7888 5.64001 10.7888 5.64175 10.7888 5.64513C10.7888 5.6519 10.7886 5.66511 10.7879 5.68381C10.7863 5.72147 10.7824 5.77982 10.7726 5.85165C10.7524 5.99884 10.7099 6.18313 10.6266 6.35821C10.5449 6.52992 10.4303 6.68023 10.2668 6.78977C10.107 6.89689 9.85614 6.995 9.44967 6.995V8.395C10.096 8.395 10.6264 8.23413 11.0462 7.95275C11.4625 7.6738 11.7259 7.30613 11.8907 6.95985C12.0539 6.61693 12.1265 6.28324 12.1596 6.04194C12.1764 5.91952 12.1837 5.816 12.1867 5.74035C12.1883 5.70239 12.1887 5.67109 12.1888 5.64751C12.1888 5.63571 12.1887 5.62581 12.1886 5.61795C12.1885 5.61402 12.1885 5.61059 12.1884 5.60768C12.1883 5.60623 12.1883 5.60491 12.1883 5.60372C12.1883 5.60312 12.1882 5.60256 12.1882 5.60203C12.1882 5.60176 12.1882 5.60139 12.1882 5.60126C12.1882 5.6009 12.1882 5.60054 11.4885 5.62305ZM9.44967 6.995H5.93851V8.395H9.44967V6.995ZM5.93851 7.695C5.94983 6.9951 5.94948 6.99509 5.94913 6.99509C5.94901 6.99508 5.94865 6.99508 5.94839 6.99507C5.94788 6.99507 5.94734 6.99506 5.94676 6.99505C5.94561 6.99504 5.94434 6.99503 5.94294 6.99501C5.94014 6.99499 5.93685 6.99497 5.93308 6.99497C5.92553 6.99497 5.91604 6.99503 5.90475 6.99522C5.88218 6.99559 5.85225 6.99648 5.81599 6.99844C5.74371 7.00234 5.64489 7.01057 5.52806 7.02781C5.29791 7.06179 4.97938 7.13343 4.65175 7.2891C4.32149 7.44603 3.96715 7.6958 3.69681 8.0899C3.42308 8.48893 3.26581 8.99202 3.26581 9.60154H4.66581C4.66581 9.24184 4.75513 9.02201 4.85129 8.88184C4.95083 8.73674 5.08967 8.63103 5.25258 8.55362C5.41812 8.47496 5.59277 8.43343 5.7325 8.41281C5.80061 8.40275 5.85591 8.39832 5.89151 8.3964C5.90919 8.39545 5.92164 8.39513 5.92797 8.39502C5.93112 8.39497 5.93272 8.39497 5.93263 8.39497C5.93259 8.39497 5.93213 8.39497 5.93123 8.39496C5.93078 8.39496 5.93022 8.39496 5.92955 8.39495C5.92921 8.39494 5.92885 8.39494 5.92846 8.39493C5.92826 8.39493 5.92795 8.39492 5.92785 8.39492C5.92753 8.39492 5.9272 8.39491 5.93851 7.695ZM3.26581 9.60154V12.8067H4.66581V9.60154H3.26581ZM3.96581 12.8067C3.27401 12.6998 3.27391 12.7005 3.27381 12.7012C3.27377 12.7014 3.27367 12.7021 3.2736 12.7026C3.27345 12.7035 3.27331 12.7045 3.27316 12.7055C3.27286 12.7075 3.27255 12.7097 3.27224 12.712C3.2716 12.7166 3.27093 12.7217 3.27024 12.7273C3.26886 12.7386 3.26742 12.7519 3.26608 12.7672C3.2634 12.7978 3.26109 12.8363 3.26056 12.8818C3.25951 12.9726 3.26548 13.0928 3.29051 13.2329C3.34108 13.5158 3.46943 13.8773 3.76598 14.2283C4.36603 14.9384 5.50807 15.4463 7.54314 15.4463V14.0463C5.70138 14.0463 5.05475 13.5843 4.83535 13.3247C4.72217 13.1907 4.6831 13.0673 4.66867 12.9866C4.66121 12.9448 4.66029 12.9135 4.66047 12.8982C4.66056 12.8906 4.6609 12.8875 4.66071 12.8897C4.66062 12.8907 4.66038 12.8932 4.65991 12.8971C4.65967 12.8991 4.65936 12.9014 4.65899 12.9041C4.6588 12.9055 4.65859 12.907 4.65836 12.9085C4.65825 12.9093 4.65813 12.9101 4.65801 12.9109C4.65794 12.9113 4.65785 12.912 4.65781 12.9122C4.65772 12.9128 4.65761 12.9135 3.96581 12.8067ZM9.49516 12.9255C9.52954 12.9255 9.55827 12.9542 9.55827 12.9886H8.15827C8.15827 13.7274 8.75634 14.3255 9.49516 14.3255V12.9255ZM9.55827 12.9886C9.55827 13.023 9.52954 13.0517 9.49516 13.0517V11.6517C8.75634 11.6517 8.15827 12.2498 8.15827 12.9886H9.55827ZM9.49516 13.0517C9.46077 13.0517 9.43205 13.023 9.43205 12.9886H10.832C10.832 12.2498 10.234 11.6517 9.49516 11.6517V13.0517ZM9.43205 12.9886C9.43205 12.9542 9.46078 12.9255 9.49516 12.9255V14.3255C10.234 14.3255 10.832 13.7274 10.832 12.9886L9.43205 12.9886Z" fill="white" mask="url(#path-2-outside-1_297_466)"/>
</g>
<defs>
<clipPath id="clip0_297_466">
<rect width="15" height="15" fill="white"/>
</clipPath>
</defs>
</svg>
