<svg width="18" height="18" viewBox="0 0 18 18" fill="none" xmlns="http://www.w3.org/2000/svg">
<g clip-path="url(#clip0_297_466)">
<path fill-rule="evenodd" clip-rule="evenodd" d="M8.9254 0.250977C4.47372 0.250977 4.75171 2.18149 4.75171 2.18149L4.75667 4.18149H9.0048V4.78198H3.06933C3.06933 4.78198 0.220703 4.45892 0.220703 8.95071C0.220703 13.4425 2.70705 13.2832 2.70705 13.2832H4.19092V11.1988C4.19092 11.1988 4.11093 8.7125 6.63756 8.7125H10.851C10.851 8.7125 13.2182 8.75076 13.2182 6.42466V2.57851C13.2182 2.57851 13.5776 0.250977 8.9254 0.250977ZM6.58297 1.59589C7.00563 1.59589 7.34724 1.9375 7.34724 2.36015C7.34724 2.78281 7.00563 3.12442 6.58297 3.12442C6.16031 3.12442 5.81871 2.78281 5.81871 2.36015C5.81871 1.9375 6.16031 1.59589 6.58297 1.59589Z" fill="white"/>
<mask id="path-2-outside-1_297_466" maskUnits="userSpaceOnUse" x="3.75293" y="3.6626" width="15" height="15" fill="black">
<rect fill="white" x="3.75293" y="3.6626" width="15" height="15"/>
<path fill-rule="evenodd" clip-rule="evenodd" d="M9.05216 17.6955C13.5038 17.6955 13.2259 15.765 13.2259 15.765L13.2209 13.765H8.97276V13.1645H14.9082C14.9082 13.1645 17.7569 13.4876 17.7569 8.99579C17.7569 4.50401 15.2705 4.6633 15.2705 4.6633H13.7866V6.74766C13.7866 6.74766 13.8666 9.23401 11.34 9.23401H7.12661C7.12661 9.23401 4.75937 9.19574 4.75937 11.5218V15.368C4.75937 15.368 4.39995 17.6955 9.05216 17.6955V17.6955V17.6955V17.6955ZM11.3946 16.3506C10.9719 16.3506 10.6303 16.009 10.6303 15.5864C10.6303 15.1637 10.9719 14.8221 11.3946 14.8221C11.8173 14.8221 12.1589 15.1637 12.1589 15.5864C12.1589 16.009 11.8173 16.3506 11.3946 16.3506V16.3506V16.3506V16.3506Z"/>
</mask>
<path d="M13.2259 15.765L12.5259 15.7667L12.526 15.816L12.533 15.8648L13.2259 15.765ZM13.2209 13.765L13.9209 13.7633L13.9192 13.065H13.2209V13.765ZM8.97276 13.765H8.27276V14.465H8.97276V13.765ZM8.97276 13.1645V12.4645H8.27276V13.1645H8.97276ZM14.9082 13.1645L14.9871 12.469L14.9478 12.4645H14.9082V13.1645ZM17.7569 8.99579L17.0569 8.99579V8.99579H17.7569ZM15.2705 4.6633V5.3633H15.2929L15.3153 5.36186L15.2705 4.6633ZM13.7866 4.6633V3.9633H13.0866V4.6633H13.7866ZM13.7866 6.74766H13.0866V6.75891L13.087 6.77017L13.7866 6.74766ZM7.12661 9.23401L7.11529 9.93401H7.12661V9.23401ZM4.75937 15.368L5.45117 15.4748L5.45937 15.4217V15.368H4.75937ZM12.1589 15.5864L11.4589 15.5864L11.4589 15.5864L12.1589 15.5864ZM9.05216 18.3955C11.3527 18.3955 12.6216 17.901 13.3011 17.2274C13.6449 16.8867 13.8092 16.5264 13.8803 16.2302C13.9153 16.0849 13.927 15.9589 13.929 15.8625C13.93 15.8142 13.9285 15.7729 13.9263 15.7398C13.9252 15.7232 13.9239 15.7087 13.9226 15.6962C13.9219 15.69 13.9212 15.6843 13.9206 15.6791C13.9202 15.6765 13.9199 15.6741 13.9196 15.6718C13.9195 15.6706 13.9193 15.6695 13.9192 15.6684C13.9191 15.6679 13.919 15.6671 13.9189 15.6668C13.9188 15.666 13.9187 15.6652 13.2259 15.765C12.533 15.8648 12.5329 15.864 12.5328 15.8633C12.5327 15.863 12.5326 15.8623 12.5326 15.8618C12.5324 15.8608 12.5323 15.8599 12.5322 15.859C12.5319 15.8571 12.5317 15.8554 12.5315 15.8537C12.5311 15.8504 12.5307 15.8475 12.5305 15.8449C12.5299 15.8397 12.5296 15.836 12.5295 15.8336C12.5291 15.8288 12.5293 15.829 12.5293 15.8335C12.5291 15.8426 12.5277 15.8675 12.5191 15.9031C12.5033 15.9688 12.4588 16.0912 12.3156 16.2331C12.0213 16.5248 11.2033 16.9955 9.05216 16.9955V18.3955ZM13.9258 15.7633L13.9209 13.7633L12.5209 13.7668L12.5259 15.7667L13.9258 15.7633ZM13.2209 13.065H8.97276V14.465H13.2209V13.065ZM9.67276 13.765V13.1645H8.27276V13.765H9.67276ZM8.97276 13.8645H14.9082V12.4645H8.97276V13.8645ZM14.9082 13.1645C14.8293 13.8601 14.8299 13.8601 14.8304 13.8602C14.8306 13.8602 14.8312 13.8603 14.8316 13.8603C14.8324 13.8604 14.8332 13.8605 14.8341 13.8606C14.8359 13.8608 14.8379 13.861 14.84 13.8612C14.8443 13.8616 14.8493 13.8621 14.8551 13.8626C14.8665 13.8636 14.8808 13.8647 14.8977 13.8658C14.9315 13.8678 14.9762 13.8696 15.0301 13.8696C15.1376 13.8697 15.284 13.8629 15.4568 13.8371C15.8012 13.7857 16.2623 13.6565 16.7242 13.3448C17.6868 12.695 18.4569 11.3948 18.4569 8.99579H17.0569C17.0569 11.0886 16.4026 11.8728 15.9409 12.1844C15.6906 12.3533 15.4395 12.4242 15.2499 12.4525C15.1555 12.4666 15.0794 12.4697 15.0312 12.4696C15.0072 12.4696 14.9906 12.4688 14.9827 12.4683C14.9788 12.4681 14.9771 12.4679 14.9777 12.468C14.9781 12.468 14.979 12.4681 14.9806 12.4683C14.9813 12.4684 14.9823 12.4684 14.9834 12.4686C14.9839 12.4686 14.9845 12.4687 14.9851 12.4688C14.9854 12.4688 14.9859 12.4688 14.9861 12.4689C14.9866 12.4689 14.9871 12.469 14.9082 13.1645ZM18.4569 8.99579C18.4569 6.6263 17.7981 5.30916 16.9637 4.60893C16.5555 4.26635 16.1406 4.10335 15.8205 4.02746C15.661 3.98967 15.5246 3.97332 15.4227 3.9667C15.3717 3.96338 15.3289 3.96248 15.2957 3.96261C15.2791 3.96267 15.2649 3.96299 15.2532 3.9634C15.2474 3.96361 15.2421 3.96383 15.2375 3.96406C15.2353 3.96418 15.2331 3.96429 15.2312 3.9644C15.2302 3.96446 15.2292 3.96451 15.2283 3.96457C15.2279 3.9646 15.2272 3.96463 15.227 3.96465C15.2264 3.96469 15.2258 3.96473 15.2705 4.6633C15.3153 5.36186 15.3147 5.3619 15.3141 5.36194C15.3139 5.36195 15.3133 5.36199 15.3129 5.36201C15.3122 5.36206 15.3114 5.3621 15.3108 5.36214C15.3094 5.36221 15.3082 5.36228 15.3071 5.36233C15.3049 5.36244 15.3032 5.36251 15.3021 5.36255C15.2998 5.36263 15.2995 5.36261 15.3011 5.3626C15.3044 5.36259 15.315 5.36265 15.332 5.36375C15.3661 5.36597 15.4239 5.37226 15.4976 5.38972C15.6436 5.42433 15.8503 5.50225 16.0637 5.68132C16.4725 6.0244 17.0569 6.8735 17.0569 8.99579L18.4569 8.99579ZM15.2705 3.9633H13.7866V5.3633H15.2705V3.9633ZM13.0866 4.6633V6.74766H14.4866V4.6633H13.0866ZM13.7866 6.74766C13.087 6.77017 13.087 6.76983 13.087 6.7695C13.087 6.7694 13.087 6.76908 13.087 6.76889C13.087 6.7685 13.0869 6.76814 13.0869 6.76782C13.0869 6.76718 13.0869 6.76669 13.0869 6.76633C13.0869 6.76561 13.0869 6.76546 13.0869 6.76584C13.0869 6.7666 13.0869 6.7695 13.0869 6.77439C13.0869 6.7842 13.0867 6.80186 13.0857 6.82623C13.0837 6.87521 13.0787 6.94975 13.0662 7.041C13.0406 7.22705 12.9867 7.46314 12.8787 7.69001C12.7724 7.91352 12.6199 8.11564 12.3985 8.26402C12.1807 8.40999 11.8517 8.53401 11.34 8.53401V9.93401C12.0916 9.93401 12.7001 9.74723 13.1779 9.427C13.6521 9.1092 13.9534 8.68973 14.1429 8.29165C14.3307 7.89694 14.4147 7.51144 14.4532 7.2313C14.4726 7.08945 14.4811 6.96975 14.4846 6.88276C14.4863 6.83914 14.4869 6.80339 14.4869 6.77677C14.4869 6.76346 14.4868 6.75239 14.4867 6.74375C14.4866 6.73942 14.4866 6.7357 14.4865 6.73259C14.4865 6.73104 14.4864 6.72964 14.4864 6.7284C14.4864 6.72778 14.4863 6.7272 14.4863 6.72666C14.4863 6.72639 14.4863 6.72601 14.4863 6.72587C14.4863 6.72551 14.4863 6.72515 13.7866 6.74766ZM11.34 8.53401H7.12661V9.93401H11.34V8.53401ZM7.12661 9.23401C7.13792 8.5341 7.13758 8.53409 7.13722 8.53409C7.13709 8.53408 7.13673 8.53408 7.13647 8.53407C7.13594 8.53407 7.13538 8.53406 7.13478 8.53405C7.13359 8.53404 7.13224 8.53402 7.13075 8.53401C7.12776 8.53399 7.12419 8.53397 7.12004 8.53397C7.11174 8.53396 7.10115 8.53403 7.08841 8.53424C7.06295 8.53466 7.02878 8.53567 6.98713 8.53792C6.90406 8.54241 6.78983 8.5519 6.65451 8.57187C6.38737 8.61131 6.01952 8.69427 5.64257 8.87338C5.26299 9.05373 4.85934 9.33906 4.55201 9.78707C4.24129 10.24 4.05937 10.8154 4.05937 11.5218H5.45937C5.45937 11.0652 5.57335 10.7731 5.70649 10.579C5.84302 10.38 6.03117 10.2387 6.2434 10.1379C6.45826 10.0358 6.68223 9.98295 6.85894 9.95687C6.94555 9.94408 7.01626 9.93839 7.06265 9.93589C7.08573 9.93464 7.10242 9.9342 7.11163 9.93405C7.11623 9.93397 7.11893 9.93397 7.1196 9.93397C7.11993 9.93397 7.11975 9.93397 7.11904 9.93396C7.11868 9.93396 7.11819 9.93395 7.11757 9.93395C7.11726 9.93394 7.11691 9.93394 7.11653 9.93393C7.11634 9.93393 7.11603 9.93393 7.11594 9.93392C7.11562 9.93392 7.11529 9.93391 7.12661 9.23401ZM4.05937 11.5218V15.368H5.45937V11.5218H4.05937ZM4.75937 15.368C4.06757 15.2612 4.06746 15.2618 4.06736 15.2625C4.06732 15.2627 4.06722 15.2634 4.06715 15.2639C4.067 15.2649 4.06685 15.2659 4.0667 15.2669C4.0664 15.269 4.06608 15.2712 4.06575 15.2736C4.06509 15.2784 4.06438 15.2838 4.06365 15.2898C4.06218 15.3018 4.06062 15.3162 4.05915 15.3329C4.05622 15.3663 4.05365 15.409 4.05306 15.4598C4.05188 15.5612 4.05854 15.6966 4.08682 15.8548C4.14389 16.1742 4.28899 16.5841 4.6265 16.9835C5.3085 17.7907 6.62941 18.3955 9.05216 18.3955V16.9955C6.82271 16.9955 5.99722 16.4366 5.69587 16.08C5.54172 15.8975 5.4859 15.7256 5.46498 15.6085C5.45427 15.5486 5.45266 15.5021 5.45296 15.4762C5.45311 15.4633 5.45372 15.4561 5.45378 15.4553C5.45381 15.455 5.4537 15.4564 5.45331 15.4596C5.45312 15.4612 5.45285 15.4632 5.4525 15.4657C5.45233 15.467 5.45213 15.4684 5.45191 15.4699C5.4518 15.4707 5.45168 15.4715 5.45156 15.4723C5.45149 15.4727 5.4514 15.4733 5.45137 15.4735C5.45127 15.4742 5.45117 15.4748 4.75937 15.368ZM11.3946 15.6506C11.3585 15.6506 11.3303 15.6224 11.3303 15.5864H9.93033C9.93033 16.3956 10.5853 17.0506 11.3946 17.0506V15.6506ZM11.3303 15.5864C11.3303 15.5503 11.3585 15.5221 11.3946 15.5221V14.1221C10.5853 14.1221 9.93033 14.7771 9.93033 15.5864H11.3303ZM11.3946 15.5221C11.4307 15.5221 11.4589 15.5503 11.4589 15.5864H12.8589C12.8589 14.7771 12.2039 14.1221 11.3946 14.1221V15.5221ZM11.4589 15.5864C11.4589 15.6224 11.4307 15.6506 11.3946 15.6506V17.0506C12.2039 17.0506 12.8589 16.3956 12.8589 15.5864L11.4589 15.5864Z" fill="white" mask="url(#path-2-outside-1_297_466)"/>
</g>
<defs>
<clipPath id="clip0_297_466">
<rect width="18" height="18" fill="white"/>
</clipPath>
</defs>
</svg>
