<svg width="25" height="25" viewBox="0 0 25 25" fill="none" xmlns="http://www.w3.org/2000/svg">
<path d="M16.4758 14.2869C16.403 14.3109 16.3282 14.334 16.252 14.3564C16.0834 13.8264 15.8559 13.2628 15.5775 12.6805C15.8432 12.112 16.0619 11.5557 16.2258 11.029C16.362 11.0683 16.4943 11.1095 16.6218 11.1532C17.8546 11.5745 18.6065 12.1976 18.6065 12.6777C18.6065 13.1891 17.7943 13.8531 16.4758 14.2869Z" fill="white"/>
<path d="M15.9287 15.3636C16.062 16.0323 16.081 16.6369 15.9927 17.1096C15.9133 17.5343 15.7538 17.8174 15.5565 17.9308C15.1367 18.1721 14.2389 17.8584 13.2707 17.031C13.1597 16.9362 13.0479 16.8349 12.9357 16.7278C13.3111 16.32 13.6862 15.8461 14.0524 15.3197C14.6964 15.263 15.3048 15.1702 15.8566 15.0435C15.8837 15.1524 15.9079 15.2592 15.9287 15.3636Z" fill="white"/>
<path d="M10.3957 17.8891C9.98556 18.033 9.65889 18.0371 9.46145 17.924C9.04122 17.6834 8.86659 16.7542 9.10483 15.5081C9.13316 15.3608 9.1656 15.2143 9.2021 15.0688C9.74774 15.1887 10.3517 15.2749 10.9973 15.3269C11.3658 15.842 11.7518 16.3154 12.1408 16.7299C12.0581 16.8094 11.9735 16.8867 11.887 16.962C11.3701 17.4107 10.8521 17.729 10.3957 17.8891Z" fill="white"/>
<path d="M8.47418 14.2838C7.82461 14.0633 7.28818 13.7768 6.92048 13.4641C6.59009 13.1831 6.42325 12.9041 6.42325 12.6777C6.42325 12.1961 7.14645 11.5816 8.35262 11.164C8.50401 11.1118 8.65691 11.064 8.81111 11.0207C8.97784 11.5592 9.1965 12.1222 9.46039 12.6915C9.19308 13.2693 8.97129 13.8412 8.80304 14.386C8.69259 14.3546 8.58294 14.3205 8.47418 14.2838Z" fill="white"/>
<path d="M9.11833 9.92964C8.86795 8.65899 9.0342 7.70051 9.45261 7.46C9.89831 7.2038 10.8837 7.56913 11.9224 8.48499C11.9888 8.54353 12.0555 8.60483 12.1223 8.66824C11.7353 9.08094 11.3529 9.55078 10.9875 10.0628C10.361 10.1205 9.76124 10.2131 9.20989 10.3372C9.17592 10.2021 9.1454 10.0662 9.11833 9.92964Z" fill="white"/>
<path d="M14.8645 11.3387C14.7343 11.1153 14.5992 10.8947 14.4594 10.6771C14.8845 10.7304 15.2917 10.8012 15.6741 10.8879C15.5593 11.2533 15.4162 11.6354 15.2477 12.0271C15.1246 11.7951 14.9969 11.5656 14.8645 11.3387Z" fill="white"/>
<path d="M12.5212 9.0721C12.7837 9.35447 13.0466 9.6698 13.3052 10.0119C12.7806 9.98728 12.2552 9.98716 11.7307 10.0115C11.9895 9.67261 12.2546 9.35775 12.5212 9.0721Z" fill="white"/>
<path d="M10.1629 11.3426C10.0322 11.5677 9.90684 11.7958 9.78688 12.0267C9.62116 11.6363 9.47937 11.2526 9.36358 10.882C9.74367 10.7975 10.149 10.7285 10.5713 10.6761C10.4299 10.895 10.2938 11.1172 10.1629 11.3426Z" fill="white"/>
<path d="M10.5834 14.7197C10.1472 14.6714 9.73571 14.6058 9.35574 14.5237C9.47336 14.1465 9.61827 13.7545 9.78753 13.3558C9.908 13.5869 10.0339 13.8151 10.1652 14.0403C10.2992 14.2701 10.4386 14.4966 10.5834 14.7197Z" fill="white"/>
<path d="M12.537 16.3233C12.2672 16.0342 11.9982 15.7146 11.7355 15.3707C11.9905 15.3807 12.2506 15.3857 12.5149 15.3857C12.7864 15.3857 13.0548 15.3797 13.319 15.368C13.0596 15.7181 12.7977 16.0382 12.537 16.3233Z" fill="white"/>
<path d="M15.2532 13.3355C15.4312 13.7385 15.5813 14.1285 15.7005 14.4992C15.3142 14.5868 14.8972 14.6573 14.4578 14.7096C14.5987 14.4879 14.735 14.2635 14.8668 14.0364C15.0008 13.8057 15.1296 13.572 15.2532 13.3355Z" fill="white"/>
<path fill-rule="evenodd" clip-rule="evenodd" d="M14.3738 13.7541C14.172 14.1022 13.9589 14.4437 13.7348 14.7781C13.3395 14.8061 12.9311 14.8206 12.5149 14.8206C12.1003 14.8206 11.6971 14.8078 11.3088 14.7828C11.0788 14.4492 10.8616 14.1071 10.6577 13.7572C10.4547 13.4092 10.2652 13.0536 10.0894 12.6913C10.2647 12.3289 10.4537 11.9731 10.656 11.6248C10.8582 11.2764 11.0737 10.9359 11.3019 10.6037C11.6981 10.574 12.1043 10.5584 12.5149 10.5584C12.9274 10.5584 13.3341 10.5741 13.7302 10.6041C13.9561 10.9357 14.1702 11.2752 14.372 11.6218C14.575 11.9694 14.7665 12.3234 14.9463 12.6833C14.7684 13.0469 14.5774 13.404 14.3738 13.7541ZM13.7044 12.6777C13.7044 12.0253 13.1719 11.4964 12.5149 11.4964C11.8579 11.4964 11.3253 12.0253 11.3253 12.6777C11.3253 13.3302 11.8579 13.8591 12.5149 13.8591C13.1719 13.8591 13.7044 13.3302 13.7044 12.6777Z" fill="white"/>
<path d="M15.5478 7.4432C15.9939 7.6987 16.1674 8.72895 15.8871 10.08C15.8687 10.1681 15.8488 10.2557 15.8272 10.343C15.2746 10.2164 14.6744 10.1221 14.046 10.0636C13.68 9.54598 13.3007 9.07532 12.92 8.66795C13.0198 8.57243 13.1219 8.47939 13.2263 8.38891C14.2098 7.53892 15.129 7.20333 15.5478 7.4432Z" fill="white"/>
<path fill-rule="evenodd" clip-rule="evenodd" d="M7.85008 15.4395C6.10618 14.8475 5 13.7973 5 12.6724C5 11.5779 6.16502 10.6058 7.85008 10.0223C7.50071 8.24911 7.77397 6.82027 8.73164 6.26975C9.72486 5.6988 11.0941 6.08316 12.522 7.34216C13.8945 6.156 15.2774 5.67755 16.2359 6.22649C17.2302 6.79586 17.5567 8.1651 17.1714 10.0347C18.8918 10.6229 20 11.5735 20 12.6724C20 13.8122 18.984 14.7076 17.1676 15.304C17.5254 17.0994 17.2273 18.5979 16.2468 19.1615C15.2929 19.7098 13.926 19.2549 12.5733 18.099C11.1857 19.3036 9.72374 19.6926 8.74242 19.1306C7.7877 18.5838 7.50183 17.1805 7.85008 15.4395ZM16.3782 10.4845C16.5223 10.5257 16.6653 10.5704 16.8071 10.6187C18.2458 11.1106 19.1756 11.8811 19.1756 12.6777C19.1756 13.5086 18.182 14.3209 16.6548 14.8233C16.5741 14.8499 16.4914 14.8755 16.4071 14.9002C16.4371 15.0203 16.464 15.1383 16.487 15.2538C16.7885 16.7661 16.5563 18.0091 15.8417 18.4199C15.1499 18.8176 14.0318 18.4269 12.8996 17.4594C12.7765 17.354 12.6564 17.2452 12.5395 17.1331C12.4466 17.2223 12.3539 17.3074 12.2615 17.3876C11.0926 18.4022 9.89231 18.8232 9.17712 18.4136C8.48469 18.017 8.26709 16.8599 8.54571 15.4027C8.57616 15.2443 8.61105 15.0868 8.65036 14.9304C8.52937 14.8961 8.40926 14.8588 8.29014 14.8185C6.82109 14.32 5.85422 13.4976 5.85422 12.6777C5.85422 11.8839 6.75494 11.1186 8.16527 10.6303C8.32292 10.5758 8.4877 10.5245 8.65832 10.4763C8.62177 10.3311 8.58894 10.185 8.55986 10.0382C8.26762 8.55518 8.47325 7.37001 9.16751 6.9709C9.89155 6.55469 11.0974 7.00164 12.3003 8.06239C12.3752 8.12852 12.4488 8.19601 12.5211 8.26485C12.6291 8.16133 12.7397 8.06054 12.8528 7.96257C14.0006 6.97061 15.1372 6.55562 15.8321 6.95363C16.5569 7.36861 16.7691 8.62924 16.4445 10.1941C16.4242 10.2913 16.4021 10.3881 16.3782 10.4845Z" fill="white"/>
</svg>
