<svg width="25" height="25" viewBox="0 0 25 25" fill="none" xmlns="http://www.w3.org/2000/svg">
<path d="M19.8975 12.316L19.2678 11.9262C19.2625 11.865 19.2565 11.8039 19.2499 11.7428L19.7911 11.2381C19.8181 11.2129 19.8383 11.1813 19.8496 11.1461C19.861 11.1109 19.8631 11.0735 19.8558 11.0373C19.8487 11.001 19.8324 10.9672 19.8085 10.9391C19.7846 10.9109 19.7539 10.8894 19.7193 10.8765L19.0275 10.6178C19.0101 10.5581 18.992 10.4985 18.9733 10.4392L19.4048 9.83986C19.4264 9.8099 19.44 9.77491 19.4443 9.73822C19.4486 9.70152 19.4434 9.66434 19.4293 9.6302C19.4152 9.59607 19.3925 9.56612 19.3636 9.54319C19.3346 9.52026 19.3002 9.50512 19.2638 9.4992L18.5343 9.38055C18.5059 9.32524 18.4764 9.27075 18.4466 9.21673L18.7531 8.54391C18.7686 8.51034 18.7751 8.47336 18.7722 8.43653C18.7692 8.3997 18.7568 8.36425 18.7363 8.33356C18.7158 8.30278 18.6878 8.27777 18.655 8.26092C18.6221 8.24407 18.5854 8.23596 18.5485 8.23735L17.8081 8.26313C17.7699 8.21524 17.7309 8.16795 17.6912 8.12128L17.8613 7.40012C17.8698 7.36416 17.869 7.32661 17.8589 7.29106C17.8488 7.25551 17.8297 7.22314 17.8036 7.19704C17.7775 7.17091 17.7451 7.15189 17.7096 7.14178C17.6741 7.13167 17.6365 7.1308 17.6006 7.13927L16.8796 7.30925C16.8328 7.26956 16.7854 7.23058 16.7374 7.1923L16.7633 6.45198C16.7647 6.41507 16.7566 6.37842 16.7398 6.34555C16.723 6.31267 16.698 6.28465 16.6672 6.26419C16.6365 6.24364 16.6011 6.23129 16.5643 6.22831C16.5275 6.22534 16.4905 6.23184 16.4569 6.2472L15.7842 6.55387C15.73 6.52392 15.6754 6.49463 15.6204 6.46598L15.5015 5.73639C15.4955 5.69995 15.4804 5.66565 15.4574 5.63671C15.4345 5.60778 15.4046 5.58518 15.3705 5.57106C15.3364 5.55693 15.2992 5.55175 15.2625 5.556C15.2259 5.56025 15.1909 5.5738 15.1609 5.59535L14.5612 6.02689C14.5021 6.00814 14.4428 5.99003 14.3829 5.97287L14.1242 5.28095C14.1114 5.24628 14.0898 5.2155 14.0616 5.19154C14.0335 5.16757 13.9997 5.15123 13.9634 5.14407C13.9272 5.13695 13.8898 5.13916 13.8547 5.1505C13.8196 5.16184 13.7879 5.18193 13.7628 5.20888L13.258 5.75045C13.1969 5.74361 13.1358 5.73763 13.0746 5.73252L12.6847 5.10265C12.6653 5.07126 12.6382 5.04536 12.606 5.02739C12.5737 5.00943 12.5374 5 12.5005 5C12.4636 5 12.4273 5.00943 12.395 5.02739C12.3628 5.04536 12.3357 5.07126 12.3162 5.10265L11.9264 5.73252C11.8652 5.73762 11.804 5.7436 11.7429 5.75045L11.2379 5.20888C11.2128 5.18183 11.1811 5.16167 11.146 5.15032C11.1108 5.13897 11.0733 5.1368 11.0371 5.14402C11.0009 5.15125 10.9671 5.16762 10.939 5.19159C10.9109 5.21555 10.8894 5.24632 10.8765 5.28095L10.6179 5.97287C10.5579 5.99003 10.4986 6.00826 10.4394 6.02689L9.83978 5.59535C9.80983 5.5737 9.77482 5.56009 9.7381 5.55584C9.70139 5.55158 9.66419 5.55681 9.63008 5.57104C9.59599 5.58519 9.56608 5.60781 9.54317 5.63674C9.52025 5.66567 9.50509 5.69997 9.49912 5.73639L9.38018 6.46598C9.3251 6.49452 9.27066 6.52387 9.21635 6.55387L8.54363 6.24714C8.51006 6.23177 8.4731 6.22527 8.43629 6.22825C8.39949 6.23124 8.36406 6.24361 8.3334 6.26419C8.30263 6.28464 8.27763 6.31265 8.26078 6.34553C8.24394 6.37841 8.23581 6.41506 8.23719 6.45198L8.26297 7.1923C8.21507 7.23065 8.16768 7.26963 8.12082 7.30925L7.39982 7.13933C7.36386 7.1309 7.32634 7.13178 7.2908 7.14187C7.25527 7.15197 7.2229 7.17096 7.19674 7.19704C7.17057 7.22314 7.15152 7.25551 7.14141 7.29106C7.13129 7.32661 7.13045 7.36416 7.13896 7.40012L7.30883 8.12128C7.26939 8.16798 7.23043 8.21526 7.19217 8.26313L6.45178 8.23735C6.41491 8.23619 6.37834 8.2444 6.34551 8.26122C6.31268 8.27803 6.28465 8.3029 6.26404 8.3335C6.2435 8.3642 6.23114 8.39964 6.22816 8.43646C6.22518 8.47328 6.23166 8.51025 6.24699 8.54385L6.55367 9.21673C6.52385 9.27075 6.49438 9.32524 6.46578 9.38055L5.73635 9.4992C5.6999 9.50515 5.66557 9.52031 5.63662 9.54324C5.60767 9.56617 5.58506 9.59612 5.57093 9.63024C5.5568 9.66437 5.55163 9.70154 5.55589 9.73822C5.56016 9.77491 5.57373 9.80989 5.59531 9.83986L6.02686 10.4393C6.00811 10.4984 5.98988 10.5579 5.97266 10.6178L5.28078 10.8765C5.24623 10.8895 5.21556 10.911 5.19168 10.9392C5.16779 10.9673 5.15149 11.0011 5.1443 11.0373C5.13712 11.0735 5.13929 11.1109 5.15061 11.1461C5.16193 11.1812 5.18203 11.2129 5.209 11.2381L5.75023 11.7428C5.7435 11.8037 5.73752 11.8651 5.73236 11.9262L5.10254 12.316C5.07116 12.3355 5.04526 12.3626 5.02732 12.3949C5.00937 12.4271 4.99997 12.4634 5 12.5003C5 12.5756 5.03885 12.6452 5.1026 12.6845L5.73236 13.0743C5.73752 13.1356 5.7435 13.1969 5.75023 13.2577L5.20895 13.7626C5.18192 13.7878 5.16178 13.8195 5.15043 13.8546C5.13908 13.8897 5.1369 13.9272 5.1441 13.9634C5.1513 13.9996 5.16763 14.0334 5.19155 14.0615C5.21548 14.0896 5.24619 14.1112 5.28078 14.1241L5.97266 14.3828C5.98988 14.4427 6.00811 14.5021 6.02686 14.5613L5.59531 15.1608C5.57369 15.1907 5.56009 15.2257 5.55581 15.2624C5.55154 15.2991 5.55672 15.3363 5.57087 15.3705C5.58503 15.4046 5.60768 15.4345 5.63667 15.4574C5.66567 15.4803 5.70004 15.4954 5.73652 15.5013L6.46584 15.62C6.49438 15.6753 6.52361 15.7298 6.55373 15.784L6.24699 16.4567C6.23163 16.4903 6.22513 16.5272 6.22812 16.5641C6.2311 16.6009 6.24347 16.6363 6.26404 16.667C6.2845 16.6978 6.3125 16.7227 6.34537 16.7396C6.37824 16.7564 6.41487 16.7645 6.45178 16.7632L7.19182 16.7373C7.23043 16.7854 7.26928 16.8325 7.30883 16.8794L7.13896 17.6007C7.13046 17.6366 7.1313 17.6741 7.14142 17.7096C7.15153 17.745 7.17058 17.7773 7.19674 17.8034C7.22282 17.8296 7.2552 17.8486 7.29076 17.8587C7.32632 17.8688 7.36387 17.8696 7.39982 17.861L8.12082 17.6912C8.1677 17.731 8.21516 17.7697 8.26303 17.8078L8.23725 18.5483C8.23592 18.5852 8.24405 18.6218 8.26087 18.6547C8.27769 18.6876 8.30264 18.7156 8.33335 18.7361C8.36405 18.7566 8.3995 18.7689 8.4363 18.7719C8.47311 18.7748 8.51006 18.7683 8.54363 18.7529L9.21635 18.4464C9.27051 18.4765 9.32513 18.5058 9.38018 18.5342L9.49912 19.2634C9.505 19.2999 9.52012 19.3343 9.54304 19.3632C9.56597 19.3922 9.59593 19.4148 9.63008 19.429C9.6642 19.4431 9.70137 19.4483 9.73807 19.4441C9.77477 19.4398 9.80977 19.4263 9.83978 19.4048L10.4391 18.9729C10.4983 18.9917 10.5578 19.01 10.6177 19.0272L10.8764 19.7189C10.8892 19.7535 10.9108 19.7842 10.9389 19.8081C10.9671 19.832 11.0009 19.8483 11.0371 19.8555C11.0733 19.8628 11.1108 19.8606 11.146 19.8493C11.1811 19.8379 11.2127 19.8177 11.2378 19.7906L11.7427 19.2494C11.8037 19.2564 11.865 19.2623 11.9263 19.2677L12.3161 19.8975C12.3356 19.9288 12.3627 19.9547 12.3949 19.9726C12.4271 19.9905 12.4634 20 12.5003 20C12.5372 20 12.5735 19.9906 12.6057 19.9726C12.638 19.9547 12.6651 19.9288 12.6846 19.8975L13.0744 19.2677C13.1357 19.2623 13.197 19.2564 13.2579 19.2494L13.7626 19.7906C13.7877 19.8177 13.8194 19.8379 13.8545 19.8492C13.8896 19.8606 13.9271 19.8627 13.9633 19.8555C13.9995 19.8483 14.0333 19.832 14.0614 19.8081C14.0896 19.7842 14.1111 19.7535 14.124 19.7189L14.3827 19.0272C14.4426 19.01 14.5021 18.9917 14.5613 18.9729L15.1608 19.4048C15.1908 19.4263 15.2258 19.4399 15.2625 19.4441C15.2992 19.4483 15.3363 19.4431 15.3704 19.429C15.4046 19.4148 15.4345 19.3922 15.4574 19.3632C15.4803 19.3342 15.4954 19.2999 15.5013 19.2634L15.6203 18.5342C15.6753 18.5057 15.7297 18.4761 15.7841 18.4464L16.4568 18.7529C16.4904 18.7683 16.5273 18.7749 16.5641 18.772C16.601 18.769 16.6364 18.7567 16.6672 18.7362C16.6979 18.7157 16.7229 18.6877 16.7397 18.6548C16.7565 18.6219 16.7646 18.5852 16.7632 18.5483L16.7374 17.8078C16.7854 17.7697 16.8327 17.7308 16.8794 17.6912L17.6005 17.861C17.6737 17.8782 17.7505 17.8569 17.8034 17.8034C17.8295 17.7773 17.8486 17.745 17.8587 17.7096C17.8688 17.6741 17.8697 17.6366 17.8612 17.6007L17.6913 16.8794C17.7309 16.8325 17.7699 16.7854 17.8079 16.7373L18.5483 16.7632C18.5852 16.7646 18.6219 16.7565 18.6548 16.7396C18.6876 16.7228 18.7156 16.6978 18.7361 16.6671C18.7567 16.6364 18.7691 16.6009 18.772 16.5641C18.775 16.5272 18.7684 16.4902 18.753 16.4566L18.4464 15.7841C18.4764 15.7298 18.5058 15.6753 18.5342 15.62L19.2637 15.5013C19.3001 15.4955 19.3345 15.4803 19.3634 15.4574C19.3924 15.4345 19.415 15.4045 19.429 15.3703C19.4431 15.3362 19.4483 15.2991 19.4441 15.2624C19.4398 15.2257 19.4263 15.1907 19.4047 15.1608L18.9731 14.5614C18.9918 14.5021 19.01 14.4427 19.0273 14.3828L19.7191 14.1241C19.7537 14.1112 19.7845 14.0897 19.8084 14.0615C19.8323 14.0333 19.8486 13.9995 19.8557 13.9633C19.863 13.9271 19.8608 13.8896 19.8495 13.8545C19.8382 13.8194 19.818 13.7877 19.7909 13.7626L19.2498 13.2577C19.2563 13.1968 19.2624 13.1355 19.2676 13.0744L19.8974 12.6845C19.9288 12.6651 19.9547 12.638 19.9727 12.6057C19.9906 12.5735 20 12.5372 20 12.5003C20 12.4253 19.9613 12.3555 19.8975 12.316ZM15.6828 17.5399C15.4423 17.4881 15.2894 17.2511 15.341 17.0098C15.3924 16.7689 15.6293 16.6156 15.8697 16.6674C16.1101 16.7189 16.2633 16.9563 16.2117 17.1971C16.1602 17.4379 15.9231 17.5914 15.6828 17.5399ZM15.4688 16.0928C15.4166 16.0816 15.3627 16.0808 15.3102 16.0904C15.2577 16.1001 15.2077 16.12 15.1629 16.149C15.1181 16.178 15.0795 16.2156 15.0492 16.2595C15.019 16.3035 14.9977 16.353 14.9865 16.4052L14.7629 17.4485C14.073 17.7616 13.3069 17.9356 12.5 17.9356C11.6746 17.9356 10.8918 17.753 10.1896 17.4266L9.96617 16.3833C9.91918 16.1637 9.70332 16.0238 9.48406 16.071L8.56297 16.2688C8.39178 16.0926 8.23267 15.905 8.08672 15.7074H12.5686C12.6192 15.7074 12.653 15.6982 12.653 15.6521V14.0667C12.653 14.0206 12.6192 14.0114 12.5685 14.0114H11.2578V13.0066H12.6755C12.8049 13.0066 13.3674 13.0435 13.5472 13.7625C13.6036 13.9837 13.7272 14.7029 13.8119 14.9332C13.8961 15.1915 14.2392 15.7074 14.6048 15.7074H16.8381C16.8635 15.7074 16.8905 15.7045 16.9191 15.6994C16.7641 15.9098 16.5944 16.1089 16.4111 16.2952L15.4688 16.0928ZM9.27014 17.5181C9.02961 17.57 8.79283 17.4167 8.74109 17.1758C8.68965 16.9344 8.84258 16.6975 9.08305 16.6457C9.32357 16.5942 9.56047 16.7476 9.61203 16.9885C9.66348 17.2293 9.51049 17.4666 9.27014 17.5181ZM7.56992 10.6241C7.66971 10.8492 7.56816 11.1131 7.34334 11.2127C7.11852 11.3126 6.85537 11.2109 6.75564 10.9856C6.65586 10.7604 6.75734 10.497 6.98223 10.3971C7.03571 10.3734 7.09335 10.3604 7.15185 10.359C7.21034 10.3576 7.26855 10.3677 7.32313 10.3887C7.37771 10.4098 7.4276 10.4415 7.46995 10.4818C7.5123 10.5222 7.54627 10.5706 7.56992 10.6241ZM7.04738 11.8628L8.00691 11.4364C8.10542 11.3926 8.18249 11.3114 8.22121 11.2108C8.25993 11.1102 8.25712 10.9983 8.2134 10.8998L8.01582 10.453H8.79301V13.9561H7.22498C7.08599 13.4668 7.01567 12.9606 7.01604 12.4519C7.01604 12.2528 7.02676 12.0561 7.04738 11.8628ZM11.258 11.5225V10.4899H13.1088C13.2044 10.4899 13.7838 10.6005 13.7838 11.0337C13.7838 11.3934 13.3394 11.5223 12.974 11.5223L11.258 11.5225ZM17.9841 12.4519C17.9841 12.5889 17.9791 12.7245 17.9691 12.859H17.4064C17.3501 12.859 17.3274 12.8961 17.3274 12.9512V13.2096C17.3274 13.8178 16.9845 13.9501 16.6839 13.9838C16.3978 14.016 16.0804 13.8639 16.0413 13.6888C15.8725 12.7393 15.5912 12.5365 15.1469 12.186C15.6983 11.8359 16.2719 11.3194 16.2719 10.6281C16.2719 9.88158 15.7602 9.41137 15.4113 9.18081C14.9219 8.8582 14.38 8.79351 14.2338 8.79351H8.41478C9.20387 7.91287 10.2733 7.28903 11.4829 7.06204L12.1688 7.78156C12.2056 7.82018 12.2496 7.85117 12.2984 7.87274C12.3472 7.89431 12.3998 7.90605 12.4531 7.90728C12.5064 7.90851 12.5595 7.89921 12.6092 7.87991C12.659 7.86061 12.7044 7.83169 12.7429 7.7948L13.5104 7.06076C15.1185 7.36016 16.48 8.36116 17.2647 9.73451L16.7393 10.9212C16.6486 11.1266 16.7411 11.3667 16.9459 11.4577L17.9575 11.907C17.9749 12.0866 17.9841 12.268 17.9841 12.4519ZM12.1691 6.44993C12.3468 6.27972 12.6287 6.28645 12.7988 6.4644C12.9686 6.64287 12.9622 6.92505 12.7841 7.09515C12.6063 7.26542 12.3245 7.2588 12.1543 7.0805C12.0728 6.99486 12.0285 6.88037 12.0313 6.76216C12.0341 6.64395 12.0836 6.53166 12.1691 6.44993ZM17.3829 10.6457C17.4066 10.5922 17.4405 10.5439 17.4829 10.5035C17.5252 10.4632 17.5751 10.4315 17.6296 10.4105C17.6842 10.3894 17.7424 10.3793 17.8009 10.3807C17.8594 10.3822 17.917 10.3951 17.9705 10.4189C18.1954 10.5186 18.2969 10.7823 18.1971 11.0074C18.1734 11.061 18.1395 11.1093 18.0971 11.1497C18.0548 11.1901 18.0049 11.2218 17.9503 11.2429C17.8957 11.2639 17.8375 11.2741 17.779 11.2726C17.7205 11.2712 17.6629 11.2582 17.6094 11.2345C17.3848 11.1347 17.2833 10.8712 17.3829 10.6457Z" fill="white"/>
</svg>
