<?xml version="1.0" standalone="no"?>
<!DOCTYPE svg PUBLIC "-//W3C//DTD SVG 20010904//EN"
 "http://www.w3.org/TR/2001/REC-SVG-20010904/DTD/svg10.dtd">
<svg version="1.0" xmlns="http://www.w3.org/2000/svg"
 width="2498.000000pt" height="2498.000000pt" viewBox="0 0 2498.000000 2498.000000"
 preserveAspectRatio="xMidYMid meet">
<metadata>
Created by potrace 1.14, written by Peter Selinger 2001-2017
</metadata>
<g transform="translate(0.000000,2498.000000) scale(0.100000,-0.100000)"
fill="#000000" stroke="none">
<path d="M12342 23562 c-46 -26 -95 -54 -110 -62 -15 -9 -71 -41 -124 -73 -53
-31 -100 -57 -104 -57 -4 0 -15 -6 -23 -14 -9 -7 -38 -26 -66 -41 -122 -67
-211 -120 -217 -129 -4 -6 -8 -7 -8 -3 0 5 -12 -1 -26 -12 -15 -12 -30 -21
-35 -21 -10 0 -112 -62 -120 -73 -3 -5 -10 -9 -15 -9 -19 -1 -54 -22 -54 -31
0 -6 -3 -7 -6 -4 -4 4 -19 -2 -34 -13 -16 -11 -33 -20 -38 -20 -6 0 -12 -3
-14 -7 -1 -5 -24 -19 -50 -32 -27 -13 -48 -28 -48 -33 0 -4 -5 -8 -10 -8 -11
0 -225 -120 -272 -152 -16 -11 -28 -16 -28 -11 0 4 -4 3 -8 -3 -6 -10 -108
-70 -190 -113 -15 -8 -28 -18 -30 -23 -2 -4 -8 -8 -14 -8 -12 0 -132 -72 -136
-83 -2 -4 -7 -5 -12 -2 -4 3 -23 -6 -41 -18 -19 -13 -77 -47 -129 -77 -52 -29
-98 -58 -102 -64 -4 -6 -8 -7 -8 -2 0 5 -8 2 -18 -7 -10 -10 -22 -14 -25 -10
-4 3 -7 2 -7 -4 0 -6 -8 -13 -17 -17 -10 -3 -40 -20 -68 -36 -27 -17 -58 -34
-67 -37 -10 -3 -18 -9 -18 -13 0 -4 -8 -10 -17 -14 -10 -3 -36 -16 -58 -29
-96 -56 -122 -71 -160 -91 -22 -12 -45 -26 -52 -32 -6 -6 -25 -17 -42 -24 -17
-7 -31 -16 -31 -21 0 -5 -6 -9 -12 -9 -7 0 -50 -23 -96 -50 -46 -28 -85 -50
-88 -50 -2 0 -33 -18 -68 -40 -35 -22 -68 -40 -75 -40 -6 0 -11 -5 -11 -11 0
-5 -4 -8 -9 -5 -5 4 -11 2 -13 -2 -1 -5 -34 -26 -73 -48 -38 -21 -77 -43 -86
-49 -9 -5 -38 -22 -65 -37 -27 -16 -67 -39 -89 -53 -22 -14 -47 -28 -55 -32
-16 -7 -156 -88 -225 -130 -22 -13 -52 -28 -67 -34 -16 -6 -28 -15 -28 -20 0
-5 -4 -9 -9 -9 -5 0 -75 -39 -157 -86 -82 -47 -167 -96 -189 -108 -22 -11 -42
-24 -45 -27 -3 -4 -32 -21 -64 -38 -33 -17 -64 -35 -70 -40 -6 -4 -31 -19 -56
-32 -25 -13 -47 -27 -50 -30 -3 -3 -18 -12 -35 -21 -16 -8 -47 -24 -67 -36
-21 -12 -53 -31 -72 -41 -19 -11 -53 -31 -75 -45 -22 -15 -43 -26 -46 -26 -3
0 -31 -16 -61 -35 -30 -19 -56 -35 -59 -35 -2 0 -49 -26 -102 -58 -54 -32
-118 -69 -143 -83 -42 -23 -102 -59 -125 -76 -6 -5 -17 -9 -24 -11 -7 -1 -37
-18 -66 -37 -29 -18 -56 -31 -59 -28 -3 4 -6 2 -6 -4 0 -6 -22 -21 -50 -34
-27 -13 -50 -27 -50 -31 0 -5 -6 -8 -14 -8 -8 0 -22 -7 -30 -16 -9 -8 -16 -13
-16 -9 0 4 -12 -3 -26 -14 -15 -12 -33 -21 -40 -21 -8 0 -14 -3 -14 -7 0 -5
-10 -13 -23 -19 -38 -18 -121 -66 -149 -85 -14 -11 -28 -19 -31 -19 -3 0 -40
-20 -81 -45 -42 -25 -81 -45 -86 -45 -6 0 -10 -4 -10 -8 0 -5 -16 -14 -35 -22
-19 -8 -35 -17 -35 -21 0 -4 -10 -11 -22 -15 -13 -3 -30 -12 -38 -19 -8 -8
-37 -25 -65 -39 -27 -15 -57 -31 -65 -36 -59 -37 -153 -90 -159 -90 -4 0 -13
-6 -20 -12 -6 -7 -15 -13 -19 -13 -4 -1 -26 -13 -50 -28 -23 -15 -58 -35 -77
-44 -19 -9 -35 -21 -35 -25 0 -5 -4 -6 -10 -3 -6 3 -10 1 -10 -5 0 -6 -4 -8
-10 -5 -5 3 -10 1 -10 -4 0 -6 -7 -11 -15 -11 -8 0 -15 -3 -15 -7 0 -5 -24
-19 -53 -33 -28 -14 -61 -33 -71 -42 -11 -10 -24 -18 -28 -18 -5 0 -64 -33
-131 -72 -67 -40 -124 -73 -127 -73 -3 -1 -23 -12 -45 -26 -22 -13 -42 -22
-44 -21 -2 2 -7 0 -10 -6 -3 -5 -44 -31 -91 -57 -47 -27 -118 -68 -157 -92
-40 -24 -77 -43 -83 -43 -5 0 -10 -4 -10 -10 0 -5 -4 -10 -10 -10 -5 0 -31
-13 -58 -29 -26 -15 -68 -39 -93 -53 -24 -14 -83 -48 -131 -77 -48 -28 -91
-51 -97 -51 -6 0 -11 -4 -11 -10 0 -5 -6 -10 -12 -11 -7 0 -33 -13 -58 -29
-25 -16 -69 -41 -98 -56 -28 -16 -52 -32 -52 -37 0 -4 -4 -6 -9 -3 -4 3 -19
-3 -32 -14 -12 -12 -33 -23 -46 -26 -13 -4 -23 -9 -23 -13 0 -3 -23 -17 -50
-30 -28 -14 -50 -29 -50 -33 0 -4 -5 -8 -11 -8 -6 0 -24 -9 -40 -21 -16 -11
-29 -17 -29 -14 0 4 -12 -3 -26 -14 -15 -12 -32 -21 -39 -21 -7 0 -15 -7 -19
-15 -3 -8 -14 -15 -24 -15 -11 0 -25 -7 -32 -15 -7 -8 -16 -15 -21 -15 -5 0
-28 -11 -50 -26 -22 -14 -56 -34 -75 -45 -46 -26 -97 -55 -136 -78 -18 -10
-105 -60 -193 -111 -88 -51 -176 -102 -195 -113 -19 -11 -48 -27 -65 -35 -16
-9 -32 -18 -35 -22 -3 -3 -44 -28 -91 -54 l-87 -48 2 -5546 1 -5546 30 -16
c17 -8 32 -18 33 -22 2 -5 10 -8 18 -8 8 0 14 -4 14 -10 0 -5 4 -10 10 -10 8
0 130 -67 180 -100 8 -5 31 -17 50 -27 19 -9 37 -19 40 -22 6 -7 43 -29 82
-48 15 -8 30 -19 33 -24 4 -5 11 -7 16 -4 5 4 9 1 9 -4 0 -6 7 -11 15 -11 8 0
15 -4 15 -8 0 -4 12 -13 28 -19 15 -7 50 -25 77 -42 51 -30 61 -36 150 -87 28
-15 52 -30 55 -33 3 -3 21 -14 40 -23 42 -21 108 -59 171 -99 25 -16 50 -29
55 -29 6 0 20 -9 32 -20 12 -11 24 -20 27 -20 7 1 69 -31 75 -39 3 -3 21 -14
40 -25 86 -45 146 -80 158 -93 8 -7 18 -11 23 -8 5 4 9 1 9 -4 0 -6 5 -11 10
-11 6 0 27 -11 48 -23 54 -35 186 -111 192 -112 3 0 23 -12 46 -27 22 -14 65
-39 95 -54 30 -16 56 -32 59 -35 3 -3 34 -21 70 -40 36 -19 67 -37 68 -41 2
-5 10 -8 18 -8 8 0 14 -4 14 -10 0 -5 4 -10 9 -10 7 0 72 -36 181 -100 47 -27
140 -81 171 -98 71 -39 84 -47 89 -52 3 -3 25 -16 50 -29 25 -13 64 -37 88
-53 24 -15 50 -28 58 -28 7 0 14 -4 14 -10 0 -5 4 -10 10 -10 5 0 31 -13 57
-29 92 -56 138 -82 156 -88 9 -3 17 -9 17 -14 0 -5 6 -9 14 -9 8 0 22 -7 30
-16 9 -8 16 -13 16 -9 0 3 12 -2 28 -13 26 -19 63 -40 147 -85 22 -12 42 -24
45 -27 3 -3 23 -14 45 -25 22 -11 44 -26 48 -32 4 -7 13 -13 19 -13 6 0 44
-20 84 -45 41 -24 74 -41 74 -37 0 4 4 2 8 -5 4 -6 42 -31 85 -55 43 -23 86
-48 95 -53 9 -6 35 -21 57 -33 22 -13 63 -36 90 -53 28 -16 61 -35 75 -42 14
-6 30 -15 35 -20 14 -11 119 -72 125 -73 3 0 23 -12 45 -26 22 -13 47 -28 55
-31 8 -4 33 -18 55 -32 22 -14 47 -28 55 -32 8 -4 42 -23 75 -42 33 -20 72
-43 87 -50 16 -8 28 -18 28 -23 0 -4 9 -8 20 -8 11 0 20 -4 20 -8 0 -5 16 -14
35 -22 19 -8 35 -18 35 -22 0 -5 4 -7 9 -4 5 4 11 2 13 -2 1 -4 35 -26 73 -47
39 -22 79 -45 90 -52 11 -7 28 -16 38 -19 9 -3 17 -11 17 -16 0 -5 5 -6 10 -3
6 3 10 3 10 -2 0 -4 23 -19 50 -32 28 -14 50 -27 50 -30 0 -4 20 -15 45 -26
25 -11 45 -23 45 -27 0 -5 4 -8 9 -8 8 0 151 -80 161 -90 3 -3 28 -16 55 -30
28 -14 52 -28 55 -31 7 -9 69 -40 76 -38 4 0 10 -3 13 -8 9 -13 175 -108 184
-105 4 1 7 -2 7 -7 0 -5 21 -20 48 -33 26 -13 49 -25 52 -28 5 -5 20 -14 99
-58 25 -14 49 -30 53 -36 4 -6 8 -7 8 -3 0 5 13 -1 29 -12 16 -12 34 -21 40
-21 6 0 11 -4 11 -10 0 -5 6 -10 14 -10 7 0 19 -7 26 -15 7 -9 15 -13 18 -10
3 3 10 1 16 -4 21 -17 288 -171 297 -171 5 0 9 -4 9 -8 0 -4 12 -13 28 -20 30
-14 71 -37 147 -82 28 -17 58 -33 68 -36 9 -4 17 -11 17 -16 0 -5 4 -6 10 -3
5 3 10 1 10 -4 0 -6 6 -11 14 -11 7 0 19 -7 26 -15 6 -8 15 -14 18 -12 4 1 18
-6 32 -14 71 -45 131 -79 140 -79 6 0 10 -4 10 -10 0 -5 4 -10 9 -10 13 0 175
-92 183 -105 5 -6 8 -6 8 0 0 7 3 7 8 0 4 -5 18 -16 31 -24 14 -7 45 -25 70
-39 25 -14 79 -45 119 -69 41 -24 77 -43 82 -43 5 0 10 -3 12 -7 4 -10 53 -38
91 -54 15 -6 27 -15 27 -21 0 -5 5 -6 10 -3 6 3 10 2 10 -3 0 -4 16 -14 35
-22 19 -8 35 -17 35 -22 0 -4 4 -8 8 -8 5 0 47 -22 93 -50 46 -27 90 -50 97
-50 6 0 12 -4 12 -10 0 -5 11 -12 25 -16 14 -3 25 -9 25 -13 0 -3 31 -22 68
-41 37 -19 69 -38 72 -41 3 -3 20 -14 39 -23 18 -10 72 -41 120 -69 47 -28 89
-52 93 -52 3 0 17 -9 30 -20 14 -11 30 -21 37 -23 6 -1 30 -13 51 -27 22 -14
44 -25 50 -25 5 0 10 -4 10 -10 0 -5 5 -10 10 -10 6 0 27 -11 48 -23 20 -13
57 -35 82 -49 105 -58 126 -71 150 -88 14 -10 28 -18 32 -19 11 -2 65 -33 104
-58 19 -12 34 -19 34 -15 0 4 4 2 8 -3 7 -11 132 -84 292 -173 25 -13 52 -31
61 -38 8 -8 19 -14 23 -14 5 0 36 -17 70 -37 69 -43 130 -77 164 -93 13 -5 30
-17 38 -25 25 -25 46 -18 165 51 63 37 134 78 158 92 25 14 66 37 92 53 26 15
50 25 53 22 3 -4 6 -1 6 6 0 6 12 17 28 24 15 7 38 19 52 28 48 31 120 70 126
68 4 0 10 3 13 9 3 5 18 15 33 23 33 17 188 106 208 119 31 20 293 170 297
170 2 0 23 13 46 29 23 16 45 28 49 27 4 0 15 6 25 14 10 8 32 22 48 30 28 14
154 86 200 115 11 7 23 13 27 14 4 1 43 23 85 49 43 26 99 58 126 72 26 14 47
28 47 32 0 5 5 8 11 8 6 0 24 9 40 21 16 11 29 17 29 13 0 -4 8 0 18 8 9 9 33
24 52 33 19 10 37 21 40 24 3 4 16 12 30 18 14 7 52 28 85 48 33 20 68 38 78
42 9 3 17 9 17 13 0 4 8 10 18 13 9 4 44 22 77 42 33 19 68 38 78 41 9 4 17
10 17 15 0 5 5 9 10 9 6 0 65 32 133 71 67 40 142 83 167 97 25 13 50 28 55
32 9 7 57 34 130 74 11 6 22 13 25 16 3 3 19 12 35 21 88 47 391 224 396 232
3 5 10 9 15 9 5 0 50 24 101 54 51 30 97 54 102 54 6 0 11 4 11 9 0 5 8 11 18
15 9 3 35 16 57 29 22 12 56 32 75 42 19 11 37 22 40 25 5 5 22 15 99 58 25
13 58 33 73 43 14 11 29 19 32 19 3 0 38 19 78 43 40 23 90 51 111 62 20 11
37 22 37 25 0 4 16 12 35 20 19 8 35 18 35 22 0 5 5 6 10 3 6 -3 10 -1 10 5 0
6 4 9 9 6 5 -4 11 -2 13 2 3 7 92 62 138 85 8 4 33 18 55 32 22 14 51 30 65
36 14 6 32 16 40 23 13 12 52 34 160 92 19 11 37 21 40 24 5 5 41 26 100 57
19 10 37 21 40 24 3 3 37 23 75 44 39 21 81 46 95 55 14 9 72 43 130 75 58 32
113 65 123 73 9 8 17 11 17 6 0 -5 4 -4 8 2 6 9 172 107 272 160 19 11 37 22
38 27 2 4 8 7 13 7 7 0 182 99 229 130 8 6 27 15 43 21 15 6 27 14 27 18 0 5
17 15 38 24 20 9 51 25 67 36 17 10 73 43 125 73 52 30 135 78 184 106 49 29
93 52 97 52 5 0 9 4 9 9 0 5 12 14 28 20 28 11 65 32 190 107 40 24 77 44 82
44 6 0 10 4 10 9 0 5 11 12 25 15 14 4 25 11 25 16 0 6 9 10 19 10 11 0 22 4
25 9 3 5 52 35 108 67 57 32 111 63 120 69 9 5 41 23 70 39 29 15 60 34 68 40
8 7 26 18 40 24 14 7 48 26 75 43 28 16 58 33 68 36 9 3 17 9 17 14 0 5 7 9
16 9 8 0 30 11 48 25 18 14 36 25 39 25 5 0 165 93 207 120 8 6 22 13 30 17 8
4 48 26 88 50 40 24 77 43 82 43 6 0 10 3 10 8 0 4 10 12 23 17 33 16 111 59
117 65 3 3 61 38 130 77 69 39 192 109 274 157 82 47 152 86 156 86 5 0 10 3
12 8 2 4 23 18 48 31 25 14 47 27 50 30 3 3 23 15 45 27 72 37 130 69 135 75
3 4 28 18 55 33 28 15 64 35 80 46 17 11 37 23 45 27 8 4 52 28 97 55 45 26
86 48 92 48 6 0 11 5 11 10 0 6 6 10 14 10 7 0 19 7 26 15 7 8 16 12 21 9 5
-3 9 0 9 5 0 6 5 11 10 11 6 0 28 11 49 24 l38 24 0 5545 0 5545 -41 23 c-23
12 -44 27 -48 33 -4 6 -8 8 -8 3 0 -4 -18 4 -41 18 -39 25 -67 41 -159 93 -25
14 -62 36 -82 49 -21 12 -40 23 -43 23 -4 0 -25 13 -48 29 -23 16 -46 30 -52
31 -5 2 -19 8 -30 15 -35 22 -193 113 -265 153 -25 14 -57 33 -71 43 -14 10
-29 16 -33 12 -3 -3 -6 -1 -6 5 0 7 -7 12 -15 12 -8 0 -15 4 -15 8 0 4 -12 13
-27 20 -16 6 -46 23 -68 36 -22 14 -51 31 -65 38 -14 7 -52 29 -86 50 -34 21
-66 38 -73 38 -6 0 -11 5 -11 10 0 6 -5 10 -11 10 -6 0 -24 9 -40 21 -16 11
-29 17 -29 14 0 -4 -7 1 -16 9 -8 9 -22 16 -30 16 -8 0 -14 4 -14 10 0 5 -11
12 -25 16 -14 3 -25 10 -25 15 0 5 -6 9 -14 9 -8 0 -21 6 -28 13 -7 6 -31 21
-53 32 -22 11 -41 23 -43 28 -2 4 -8 7 -12 7 -8 0 -69 35 -155 87 -11 7 -31
18 -45 25 -14 7 -27 15 -30 18 -6 6 -66 39 -107 59 -18 8 -33 19 -33 23 0 4
-5 8 -10 8 -6 0 -27 11 -48 23 -20 13 -57 35 -82 49 -25 14 -62 35 -82 47 -21
11 -55 31 -75 42 -86 48 -128 73 -133 79 -5 5 -101 57 -137 75 -13 5 -23 13
-23 18 0 4 -7 7 -15 7 -8 0 -15 5 -15 10 0 6 -6 10 -12 10 -12 0 -150 78 -173
98 -5 4 -12 8 -15 8 -5 0 -118 64 -203 115 -26 16 -52 29 -57 29 -6 0 -10 5
-10 10 0 6 -4 10 -9 10 -9 0 -211 113 -251 140 -8 6 -22 13 -30 17 -8 4 -49
27 -90 51 -89 53 -127 75 -200 115 -30 17 -61 37 -68 44 -7 7 -18 13 -23 13
-6 0 -43 19 -82 43 -40 24 -92 54 -117 68 -25 13 -47 27 -50 30 -5 5 -74 44
-160 90 -25 13 -47 27 -50 30 -3 3 -25 16 -50 30 -25 13 -47 26 -50 29 -3 3
-25 16 -50 29 -25 13 -52 30 -61 38 -9 7 -19 10 -22 6 -4 -3 -7 -2 -7 3 0 6
-16 16 -35 24 -19 8 -35 16 -35 19 0 3 -18 15 -40 25 -22 11 -40 23 -40 28 0
4 -4 7 -8 5 -7 -2 -47 21 -262 147 -25 14 -60 33 -77 41 -18 8 -33 20 -33 25
0 6 -7 10 -15 10 -14 0 -61 25 -75 40 -3 3 -18 12 -35 20 -16 8 -32 17 -35 20
-3 3 -23 15 -45 26 -22 12 -96 53 -163 93 -68 39 -128 71 -133 71 -5 0 -9 5
-9 10 0 6 -7 10 -15 10 -8 0 -15 3 -15 8 0 4 -15 14 -32 21 -29 13 -132 72
-178 101 -8 6 -25 14 -37 19 -11 6 -24 15 -28 21 -3 5 -11 8 -16 5 -5 -4 -9
-2 -9 3 0 5 -8 12 -17 16 -10 3 -25 10 -33 15 -44 30 -190 111 -199 111 -6 0
-11 4 -11 8 0 5 -18 17 -40 27 -22 10 -40 22 -40 27 0 5 -4 7 -9 4 -5 -3 -14
1 -21 9 -7 8 -16 15 -20 15 -4 0 -58 29 -119 65 -62 36 -116 65 -121 65 -4 0
-10 4 -12 8 -2 4 -30 23 -63 41 -98 56 -128 73 -160 92 -16 11 -41 25 -55 32
-14 6 -68 38 -121 70 -53 31 -101 57 -107 57 -7 0 -12 5 -12 11 0 5 -4 7 -10
4 -5 -3 -10 -2 -10 3 0 5 -18 17 -40 28 -22 10 -40 22 -40 27 0 4 -4 7 -10 7
-5 0 -81 41 -167 91 -87 51 -178 103 -203 117 -52 29 -107 62 -135 80 -11 6
-31 17 -45 23 -13 5 -27 13 -30 17 -3 4 -16 13 -30 20 -14 7 -47 26 -75 42
-27 17 -61 36 -75 43 -14 6 -31 17 -38 24 -7 7 -24 16 -38 19 -13 3 -24 10
-24 15 0 5 -4 9 -9 9 -5 0 -74 38 -154 85 -80 47 -150 85 -156 85 -6 0 -11 3
-11 8 0 4 -34 25 -75 47 -41 21 -75 43 -75 48 0 4 -4 6 -9 3 -5 -3 -14 1 -21
9 -7 8 -19 15 -26 15 -8 0 -14 3 -14 8 0 4 -15 14 -32 21 -18 8 -62 32 -98 54
-61 38 -87 52 -200 115 -25 13 -47 27 -50 31 -3 3 -23 15 -45 27 -44 23 -87
47 -155 88 -25 15 -53 29 -62 33 -10 3 -18 9 -18 14 0 5 -5 9 -11 9 -6 0 -24
9 -40 21 -16 11 -29 17 -29 13 0 -4 -8 0 -17 8 -16 14 -80 52 -220 129 -42 24
-63 29 -120 29 -63 0 -74 -4 -151 -48z m190 -1071 c18 -10 60 -34 93 -54 33
-19 63 -34 66 -34 4 1 15 -5 25 -14 11 -9 62 -40 114 -69 52 -30 98 -58 102
-64 5 -7 8 -7 8 -1 0 6 3 6 8 -1 4 -6 33 -23 65 -39 31 -16 57 -32 57 -36 0
-4 11 -10 24 -13 14 -3 31 -12 38 -19 13 -11 36 -25 113 -66 16 -9 32 -18 35
-21 3 -3 25 -16 50 -29 25 -13 53 -31 63 -39 9 -8 17 -11 17 -6 0 5 4 5 8 -1
8 -11 27 -23 112 -69 30 -16 57 -33 60 -36 3 -4 20 -13 38 -21 17 -8 32 -17
32 -21 0 -5 4 -8 9 -8 9 0 152 -79 161 -89 3 -3 23 -15 45 -27 52 -27 89 -48
95 -54 3 -3 21 -13 40 -22 50 -25 94 -52 98 -61 2 -4 8 -5 13 -1 5 3 9 1 9 -5
0 -6 23 -20 50 -32 28 -12 50 -24 50 -28 0 -4 20 -15 45 -26 25 -11 45 -23 45
-27 0 -5 7 -8 15 -8 8 0 15 -5 15 -11 0 -5 5 -7 10 -4 6 3 10 1 10 -4 0 -6 5
-11 10 -11 6 0 76 -38 155 -85 80 -47 150 -85 155 -85 6 0 10 -3 10 -8 0 -4
20 -16 45 -27 25 -11 45 -23 45 -27 0 -4 19 -16 43 -27 23 -11 65 -34 92 -51
28 -17 60 -35 72 -40 11 -5 24 -14 28 -20 3 -5 11 -8 16 -5 5 4 9 2 9 -3 0 -4
29 -23 65 -42 36 -19 65 -37 65 -42 0 -4 9 -8 20 -8 11 0 20 -4 20 -9 0 -5 9
-13 20 -16 11 -4 48 -23 83 -44 34 -21 82 -49 107 -63 71 -40 173 -99 200
-116 14 -9 27 -17 30 -17 3 0 39 -20 80 -45 147 -86 215 -125 243 -139 15 -8
27 -18 27 -23 0 -5 4 -7 9 -4 5 3 19 -2 32 -12 13 -10 31 -22 39 -26 8 -4 24
-12 35 -19 11 -7 52 -30 90 -51 39 -22 73 -44 77 -50 5 -7 8 -7 8 -1 0 7 3 7
8 0 8 -12 80 -54 105 -62 9 -3 17 -9 17 -14 0 -5 5 -9 11 -9 6 0 48 -22 94
-50 46 -27 86 -50 90 -50 4 0 19 -8 33 -19 15 -10 43 -28 62 -39 209 -119 259
-147 282 -163 14 -11 33 -19 41 -19 9 0 17 -3 19 -7 4 -10 106 -73 117 -73 5
0 20 -9 35 -21 14 -11 26 -17 26 -12 0 4 4 3 8 -3 4 -6 27 -22 52 -36 134 -74
165 -93 168 -100 2 -4 8 -8 12 -8 5 0 59 -29 121 -65 61 -36 113 -65 116 -65
2 0 29 -16 59 -35 30 -19 56 -35 58 -35 2 0 34 -18 70 -40 36 -22 70 -40 76
-40 5 0 10 -3 10 -7 0 -5 10 -13 23 -19 49 -23 112 -59 115 -67 2 -4 8 -5 13
-1 5 3 9 1 9 -4 0 -5 14 -15 30 -22 17 -7 30 -17 30 -23 0 -6 3 -7 6 -4 4 4
19 -2 33 -12 14 -10 33 -21 41 -24 8 -4 33 -18 55 -31 22 -14 58 -35 80 -46
22 -12 80 -46 130 -75 49 -29 94 -53 99 -53 5 0 12 -4 15 -10 3 -5 26 -20 51
-34 101 -56 125 -70 135 -78 9 -6 49 -29 150 -84 11 -6 23 -15 27 -21 5 -7 8
-7 8 0 0 6 3 6 8 0 7 -10 129 -85 138 -85 2 0 21 -11 42 -23 20 -13 64 -39 97
-57 33 -18 62 -36 65 -39 3 -3 19 -13 35 -21 17 -8 48 -26 70 -39 22 -14 42
-26 45 -26 7 -1 104 -58 110 -65 3 -3 18 -12 35 -20 16 -8 74 -41 128 -72 53
-32 102 -58 107 -58 6 0 10 -4 10 -9 0 -5 8 -11 18 -15 19 -6 119 -61 136 -75
6 -4 31 -20 56 -33 52 -29 78 -44 212 -122 53 -31 102 -56 107 -56 6 0 11 -4
11 -8 0 -4 24 -20 53 -35 28 -16 70 -39 92 -53 22 -13 65 -38 95 -54 30 -17
73 -42 95 -55 22 -14 51 -31 65 -37 14 -7 48 -27 77 -45 29 -18 57 -33 63 -33
5 0 10 -4 10 -10 0 -5 6 -10 13 -10 7 0 28 -11 47 -24 l35 -23 -1 -426 c-1
-285 2 -424 9 -420 6 4 7 1 1 -8 -14 -21 -14 -451 0 -468 7 -10 7 -13 0 -8 -7
4 -11 -112 -11 -398 0 -267 4 -402 10 -398 6 4 7 1 1 -8 -14 -21 -14 -451 0
-468 7 -10 7 -13 0 -8 -7 4 -11 -112 -11 -398 0 -267 4 -402 10 -398 6 4 7 1
1 -8 -14 -21 -14 -451 0 -468 7 -10 7 -13 0 -8 -7 4 -11 -112 -11 -398 0 -267
4 -402 10 -398 6 4 7 1 1 -8 -14 -21 -14 -451 0 -468 7 -10 7 -13 0 -8 -7 4
-11 -112 -11 -398 0 -267 4 -402 10 -398 6 4 7 1 1 -8 -14 -21 -14 -451 0
-468 7 -10 7 -13 0 -8 -7 4 -11 -112 -11 -398 0 -267 4 -402 10 -398 6 4 7 1
1 -8 -14 -21 -14 -451 0 -468 7 -10 7 -13 0 -8 -7 4 -11 -112 -11 -398 0 -267
4 -402 10 -398 6 4 7 1 1 -8 -14 -21 -14 -451 0 -468 7 -10 7 -13 0 -8 -8 4
-10 -127 -10 -459 1 -256 -1 -469 -4 -473 -6 -8 -108 -71 -115 -71 -3 0 -29
-16 -59 -35 -30 -19 -60 -35 -66 -35 -5 0 -10 -4 -10 -10 0 -5 -5 -10 -10 -10
-11 0 -340 -188 -350 -199 -3 -3 -12 -7 -20 -9 -8 -2 -22 -10 -31 -18 -8 -8
-21 -14 -27 -14 -7 0 -12 -5 -12 -11 0 -5 -4 -7 -10 -4 -5 3 -10 2 -10 -2 0
-5 -12 -14 -27 -21 -45 -19 -137 -74 -145 -86 -4 -6 -8 -8 -8 -4 0 4 -25 -8
-55 -27 -30 -20 -55 -32 -55 -28 0 4 -5 0 -11 -9 -5 -10 -14 -18 -20 -18 -10
0 -169 -89 -179 -99 -3 -4 -23 -16 -45 -28 -22 -11 -56 -30 -75 -41 -19 -11
-71 -40 -115 -66 -44 -25 -85 -49 -91 -53 -5 -4 -26 -16 -45 -27 -19 -10 -50
-28 -69 -39 -69 -39 -127 -73 -230 -132 -58 -32 -107 -62 -110 -65 -3 -3 -22
-14 -42 -23 -20 -10 -40 -22 -43 -27 -4 -6 -11 -8 -16 -5 -5 4 -9 2 -9 -2 0
-5 -29 -24 -65 -43 -36 -19 -65 -38 -65 -43 0 -4 -4 -6 -9 -2 -5 3 -12 1 -15
-4 -3 -5 -29 -21 -58 -36 -29 -15 -68 -39 -87 -53 -19 -14 -31 -19 -26 -11 6
10 2 9 -11 -3 -23 -19 -194 -119 -194 -113 0 3 -9 -3 -20 -12 -11 -10 -41 -29
-68 -43 -79 -43 -147 -84 -153 -93 -3 -5 -10 -9 -15 -9 -10 0 -55 -25 -180
-100 -45 -26 -87 -48 -93 -48 -6 0 -11 -4 -11 -10 0 -5 -11 -12 -25 -16 -14
-3 -25 -10 -25 -15 0 -5 -4 -9 -9 -9 -5 0 -92 -48 -193 -106 -101 -58 -207
-119 -236 -136 -29 -16 -74 -42 -100 -58 -26 -16 -58 -35 -72 -42 -14 -7 -28
-17 -32 -23 -4 -5 -8 -6 -8 -1 0 5 -8 2 -17 -6 -25 -21 -180 -108 -193 -108
-5 0 -10 -4 -10 -9 0 -5 -13 -14 -30 -20 -17 -5 -30 -15 -30 -21 0 -6 -4 -9
-9 -5 -5 3 -16 -2 -24 -10 -9 -8 -18 -15 -22 -15 -3 0 -50 -26 -103 -57 -53
-31 -99 -56 -101 -54 -2 1 -7 -1 -10 -6 -9 -13 -147 -93 -160 -93 -6 0 -11 -5
-11 -11 0 -5 -4 -7 -10 -4 -5 3 -10 3 -10 -2 0 -4 -21 -19 -47 -32 -27 -14
-59 -33 -73 -42 -14 -9 -50 -30 -80 -47 -30 -16 -90 -50 -133 -76 -43 -25 -82
-46 -87 -46 -6 0 -10 -4 -10 -10 0 -5 -6 -10 -14 -10 -8 0 -21 -6 -29 -14 -8
-8 -29 -22 -48 -30 -19 -9 -68 -37 -109 -61 -41 -25 -84 -50 -95 -55 -21 -10
-41 -22 -86 -52 -14 -10 -29 -15 -33 -11 -3 3 -6 2 -6 -3 0 -6 -22 -21 -50
-35 -27 -13 -50 -27 -50 -31 0 -5 -5 -8 -10 -8 -6 0 -35 -16 -65 -35 -30 -19
-55 -32 -55 -29 0 3 -7 -2 -16 -10 -8 -9 -20 -14 -25 -11 -5 4 -9 2 -9 -2 0
-5 -25 -22 -55 -38 -30 -17 -55 -33 -55 -37 0 -5 -8 -8 -17 -8 -10 0 -29 -9
-43 -20 -14 -11 -31 -20 -37 -20 -7 0 -13 -4 -13 -8 0 -5 -18 -17 -40 -27 -22
-10 -40 -23 -40 -28 0 -6 -3 -8 -6 -4 -4 3 -31 -9 -60 -28 -30 -19 -58 -35
-63 -35 -5 0 -14 -7 -21 -15 -7 -8 -16 -12 -21 -9 -5 3 -9 0 -9 -6 0 -6 -4 -9
-9 -6 -5 4 -11 2 -13 -2 -4 -10 -169 -108 -198 -117 -11 -3 -20 -11 -20 -16 0
-5 -4 -9 -9 -9 -6 0 -52 -25 -104 -55 -51 -30 -99 -55 -105 -55 -7 0 -12 -3
-12 -8 0 -4 -17 -16 -37 -27 -21 -11 -40 -22 -43 -25 -3 -3 -18 -12 -35 -20
-16 -8 -58 -32 -92 -52 -35 -21 -67 -38 -73 -38 -5 0 -10 -4 -10 -9 0 -5 -9
-12 -20 -16 -16 -5 -103 -54 -195 -110 -11 -7 -22 -12 -25 -13 -3 0 -42 -23
-87 -51 -46 -28 -85 -51 -87 -51 -2 0 -50 -27 -105 -60 -56 -33 -106 -60 -111
-60 -6 0 -10 -5 -10 -11 0 -5 -4 -8 -9 -5 -5 4 -11 3 -13 -1 -4 -10 -57 -42
-80 -50 -10 -3 -18 -9 -18 -14 0 -5 -5 -9 -10 -9 -14 0 -273 -151 -282 -164
-4 -6 -8 -8 -8 -4 0 4 -33 -13 -74 -37 -40 -25 -76 -45 -79 -45 -4 0 -26 -13
-49 -29 -24 -16 -46 -27 -50 -25 -5 3 -8 0 -8 -5 0 -6 -7 -11 -15 -11 -8 0
-15 -4 -15 -10 0 -5 -4 -10 -9 -10 -6 0 -67 -33 -137 -74 l-127 -74 -56 31
c-31 16 -68 37 -83 44 -16 8 -28 19 -28 25 0 6 -3 9 -6 5 -3 -3 -23 4 -43 17
-20 13 -56 34 -81 48 -25 14 -65 37 -90 52 -25 15 -53 29 -62 33 -10 3 -18 9
-18 14 0 5 -4 9 -9 9 -5 0 -48 22 -94 49 -47 27 -88 47 -91 43 -3 -3 -6 0 -6
6 0 6 -17 19 -37 29 -21 9 -40 20 -43 24 -3 3 -30 19 -60 35 -30 16 -56 32
-58 37 -2 4 -10 7 -18 7 -8 0 -14 5 -14 11 0 5 -5 7 -10 4 -6 -3 -10 -1 -10 4
0 6 -5 11 -11 11 -6 0 -23 9 -39 20 -15 11 -30 17 -34 13 -3 -3 -6 -2 -6 4 0
6 -13 16 -30 22 -16 5 -30 15 -30 22 0 7 -3 10 -6 6 -5 -5 -194 100 -274 151
-14 9 -28 15 -32 14 -5 -1 -8 3 -8 9 0 5 -5 7 -10 4 -5 -3 -10 -1 -10 4 0 6
-7 11 -15 11 -8 0 -15 5 -15 10 0 6 -5 10 -11 10 -6 0 -25 10 -42 22 -18 13
-34 22 -37 22 -4 -1 -33 15 -95 53 -11 7 -42 24 -70 39 -27 14 -57 32 -66 40
-8 8 -18 14 -22 14 -3 0 -34 17 -69 37 -35 21 -66 36 -70 35 -5 -1 -8 2 -8 6
0 4 -22 19 -50 33 -27 13 -50 27 -50 32 0 4 -5 7 -10 7 -6 0 -40 18 -76 40
-36 22 -68 40 -70 40 -2 0 -44 25 -94 55 -49 30 -90 52 -90 49 0 -2 -6 0 -12
6 -19 17 -178 109 -178 103 0 -2 -7 3 -16 11 -8 9 -22 16 -30 16 -8 0 -14 5
-14 10 0 6 -7 10 -15 10 -8 0 -15 4 -15 9 0 7 -22 17 -45 20 -3 0 -11 5 -18
11 -26 22 -88 60 -98 60 -6 0 -25 11 -43 25 -18 14 -36 25 -39 25 -4 0 -31 16
-61 35 -30 19 -57 35 -60 35 -4 0 -134 74 -176 100 -27 16 -124 72 -170 98
-93 51 -186 106 -201 119 -9 7 -19 10 -22 6 -4 -3 -7 -1 -7 5 0 7 -4 12 -10
12 -5 0 -38 17 -72 38 -35 21 -70 41 -78 45 -8 4 -33 18 -55 32 -22 14 -52 30
-67 36 -16 6 -28 15 -28 20 0 5 -6 9 -13 9 -7 0 -28 11 -47 23 -19 13 -55 35
-80 49 -115 64 -368 210 -410 237 -14 8 -27 16 -30 16 -3 0 -33 17 -68 38 -35
20 -67 37 -73 37 -5 0 -9 4 -9 9 0 4 -28 23 -62 40 -35 18 -103 57 -153 87
-49 29 -104 60 -121 68 -17 8 -35 19 -38 25 -4 6 -12 9 -17 6 -5 -4 -9 -2 -9
3 0 5 -13 15 -30 22 -16 7 -30 17 -30 23 0 6 -3 8 -6 4 -3 -3 -39 14 -79 39
-40 24 -77 44 -83 44 -6 0 -12 3 -14 8 -4 9 -235 142 -248 142 -6 0 -10 5 -10
11 0 5 -4 7 -10 4 -6 -3 -10 -2 -10 3 0 5 -17 18 -37 27 -21 10 -40 21 -43 24
-3 3 -23 16 -45 27 -92 49 -210 119 -213 126 -2 5 -8 6 -13 2 -5 -3 -9 0 -9 5
0 6 -4 11 -9 11 -8 0 -173 93 -231 130 -8 5 -39 22 -67 37 -29 15 -53 31 -53
35 0 4 -5 8 -11 8 -5 0 -54 25 -107 56 -105 61 -142 83 -197 114 -158 90 -180
103 -187 115 -4 5 -8 6 -8 2 0 -4 -25 8 -55 28 -31 19 -61 36 -68 38 -7 1 -14
4 -17 8 -6 6 -56 36 -112 68 -39 22 -58 33 -168 96 -36 21 -76 44 -90 52 -14
8 -43 25 -65 39 -22 14 -48 27 -57 31 -10 3 -18 9 -18 13 0 4 -11 11 -24 14
-14 3 -31 12 -38 19 -7 6 -43 28 -80 47 -37 19 -68 38 -68 43 0 4 -6 7 -13 7
-7 0 -28 10 -47 23 -19 13 -60 37 -90 53 -30 16 -57 31 -60 34 -6 6 -43 27
-95 54 -22 12 -42 24 -45 27 -5 6 -108 64 -147 83 -13 6 -23 14 -23 19 0 4 -4
7 -10 7 -5 0 -33 14 -62 32 -29 17 -69 40 -88 50 -19 10 -48 27 -65 37 -33 20
-87 51 -155 89 -25 14 -54 31 -65 39 -20 13 -20 37 -20 4984 l0 4971 25 17
c14 10 32 21 40 24 8 4 29 15 45 26 27 16 55 33 126 73 13 7 26 15 29 18 3 3
19 12 35 20 17 8 36 19 44 25 14 10 100 60 161 93 19 10 76 43 125 72 50 29
115 66 145 83 30 17 83 48 118 69 34 21 66 38 70 38 4 0 17 7 27 15 21 16 540
318 540 314 0 -3 24 11 80 47 17 10 33 17 38 16 4 -1 7 2 7 7 0 5 10 13 22 17
12 3 30 15 41 25 11 10 23 16 27 14 4 -3 13 2 20 10 7 8 16 15 21 15 5 0 37
17 71 38 35 21 88 52 118 69 106 58 185 107 188 115 2 4 7 6 11 3 5 -2 23 7
41 20 19 14 38 25 44 25 5 0 17 6 25 14 9 8 40 26 69 41 28 15 52 30 52 34 0
4 6 8 13 8 12 1 188 100 197 112 3 3 33 20 67 36 35 17 63 33 63 36 0 4 15 12
33 20 17 7 34 16 37 19 3 3 37 24 75 45 39 21 72 42 73 47 2 4 11 8 20 8 8 0
23 6 31 14 9 7 36 25 61 38 59 33 168 96 200 116 14 9 25 14 25 11 0 -2 14 6
32 19 17 12 36 22 41 22 6 0 12 4 14 8 2 5 39 28 83 53 44 24 89 50 100 56 11
7 32 18 48 25 15 7 27 16 27 20 0 4 6 8 14 8 8 0 21 6 28 13 16 16 178 107
189 107 5 0 9 5 9 11 0 5 5 7 10 4 6 -3 10 -2 10 3 0 6 12 15 28 21 15 6 45
22 67 36 22 14 47 28 55 32 14 6 84 48 135 81 21 13 68 34 73 32 1 0 9 6 18
14 8 9 53 36 99 61 47 26 87 51 91 56 3 5 10 7 15 4 5 -4 9 -1 9 4 0 6 7 11
15 11 8 0 15 5 15 10 0 6 5 10 11 10 7 0 45 20 86 44 40 25 82 48 93 51 11 4
20 11 20 16 0 5 5 9 10 9 6 0 28 11 50 25 22 14 40 22 40 18 0 -5 4 -3 8 2 9
12 74 55 122 79 48 24 75 40 91 52 8 6 39 25 69 41 126 69 204 115 212 128 4
5 8 6 8 2 0 -4 25 8 55 28 31 19 59 35 64 35 4 0 19 9 33 19 14 11 31 21 39
23 14 3 29 13 54 36 8 7 15 11 15 7 0 -3 13 3 29 14 16 12 31 21 34 21 3 0 58
31 121 69 64 38 116 66 116 63 0 -4 4 -2 8 3 8 12 30 25 100 62 28 15 52 31
52 36 0 4 5 5 10 2 6 -3 10 -1 10 4 0 6 9 11 19 11 10 0 21 7 25 15 3 8 9 14
13 13 9 -3 148 77 176 100 9 8 17 12 17 8 0 -4 13 2 29 13 16 12 34 21 40 21
5 0 14 6 18 14 4 8 12 15 16 15 10 0 138 70 157 87 8 7 22 14 30 16 8 2 17 5
20 8 9 11 252 150 260 150 5 0 15 6 22 13 8 6 24 18 38 26 25 14 102 57 135
75 11 6 22 13 25 16 3 3 14 10 25 16 115 62 142 79 158 92 9 8 17 12 17 8 0
-4 6 -2 13 4 23 20 127 79 127 72 0 -4 4 -2 8 4 4 6 34 25 67 44 33 19 63 38
67 44 4 6 8 7 8 3 0 -5 13 1 29 12 16 12 32 21 36 21 4 0 27 14 52 30 24 17
46 30 48 30 2 0 54 29 116 65 61 36 116 65 120 65 5 0 9 5 9 10 0 6 6 10 14
10 8 0 22 7 31 16 9 9 18 14 21 11 3 -3 14 3 25 14 10 10 26 19 34 19 8 0 15
4 15 9 0 5 12 14 28 20 15 6 56 29 92 51 36 22 71 40 78 40 6 0 12 5 12 10 0
6 6 10 14 10 8 0 16 4 18 9 2 5 10 11 18 13 8 2 17 6 20 9 3 3 37 23 75 44 39
21 74 42 80 46 13 13 20 11 57 -10z"/>
<path d="M12438 21095 c-20 -14 -39 -25 -42 -25 -3 0 -30 -16 -60 -35 -29 -19
-56 -31 -60 -28 -3 4 -6 2 -6 -3 0 -5 -26 -22 -58 -39 -31 -16 -59 -33 -62
-36 -3 -4 -29 -19 -58 -35 -29 -16 -61 -33 -70 -39 -217 -127 -225 -132 -294
-168 -29 -16 -60 -35 -69 -43 -8 -8 -18 -14 -22 -14 -4 0 -44 -22 -91 -50 -47
-27 -89 -50 -95 -50 -6 0 -11 -4 -11 -9 0 -5 -8 -11 -17 -15 -18 -5 -53 -26
-63 -36 -3 -3 -12 -6 -20 -8 -8 -2 -16 -8 -18 -13 -2 -5 -9 -9 -17 -9 -7 0
-18 -7 -25 -15 -7 -8 -16 -13 -20 -10 -4 3 -13 -1 -19 -9 -6 -7 -29 -21 -51
-31 -22 -10 -40 -22 -40 -27 0 -4 -6 -8 -13 -8 -7 0 -29 -11 -50 -25 -20 -14
-37 -23 -37 -19 0 4 -10 -2 -22 -13 -13 -11 -38 -26 -55 -34 -18 -8 -33 -17
-33 -21 0 -5 -4 -8 -9 -8 -8 0 -124 -64 -181 -100 -8 -5 -34 -19 -57 -31 -24
-13 -43 -26 -43 -31 0 -4 -6 -8 -13 -8 -7 0 -34 -13 -59 -29 -25 -16 -49 -27
-52 -24 -3 4 -6 2 -6 -3 0 -5 -26 -22 -57 -39 -32 -16 -64 -36 -71 -42 -7 -7
-20 -13 -28 -13 -8 0 -14 -4 -14 -9 0 -5 -8 -11 -17 -14 -10 -4 -36 -18 -58
-31 -22 -14 -50 -30 -63 -36 -12 -5 -47 -26 -77 -45 -31 -19 -58 -35 -60 -35
-3 0 -38 -20 -78 -44 -112 -67 -268 -156 -275 -156 -3 0 -13 -6 -21 -14 -9 -8
-38 -26 -66 -41 -27 -14 -68 -37 -90 -51 -22 -13 -47 -27 -55 -31 -8 -3 -27
-15 -42 -25 -16 -11 -28 -16 -28 -11 0 4 -4 3 -8 -3 -7 -10 -108 -74 -117 -74
-3 0 -34 -18 -70 -40 -36 -22 -67 -40 -70 -40 -3 0 -28 -15 -57 -33 -29 -19
-61 -36 -70 -40 -10 -3 -18 -10 -18 -15 0 -5 -6 -9 -12 -9 -7 0 -48 -21 -91
-46 -43 -26 -83 -47 -88 -47 -5 0 -9 -4 -9 -10 0 -5 -4 -10 -9 -10 -6 0 -60
-29 -122 -65 -61 -36 -116 -65 -120 -65 -5 0 -9 -4 -9 -10 0 -5 -6 -10 -13
-10 -7 0 -36 -16 -65 -35 -28 -20 -52 -33 -52 -30 0 3 -19 -7 -42 -23 -53 -36
-111 -67 -120 -64 -5 1 -8 -3 -8 -8 0 -6 -18 -17 -40 -26 -22 -9 -40 -20 -40
-25 0 -5 -6 -9 -13 -9 -7 0 -29 -11 -50 -25 -20 -14 -37 -22 -37 -18 0 4 -7
-2 -15 -13 -8 -10 -15 -15 -15 -11 0 5 -13 -1 -29 -12 -16 -12 -34 -21 -40
-21 -6 0 -11 -4 -11 -9 0 -5 -10 -13 -22 -17 -13 -4 -25 -10 -28 -13 -3 -4
-21 -15 -40 -24 -19 -10 -48 -27 -65 -37 -16 -11 -37 -23 -45 -27 -8 -4 -118
-67 -244 -140 -126 -73 -233 -133 -237 -133 -5 0 -9 -5 -9 -11 0 -5 -4 -7 -10
-4 -5 3 -10 1 -10 -4 0 -6 -5 -11 -10 -11 -6 0 -27 -11 -48 -23 -20 -13 -64
-39 -97 -57 -33 -18 -63 -38 -67 -44 -4 -6 -8 -8 -8 -4 0 4 -36 -15 -81 -42
-44 -28 -84 -50 -88 -50 -5 0 -20 -9 -35 -21 -14 -11 -26 -17 -26 -13 0 4 -8
0 -17 -8 -28 -23 -143 -88 -143 -80 0 4 -4 2 -8 -4 -6 -10 -124 -81 -252 -152
-25 -14 -56 -32 -70 -41 -14 -9 -42 -26 -62 -36 -21 -11 -38 -24 -38 -29 0 -5
-3 -6 -7 -3 -3 4 -11 3 -17 -2 -6 -5 -28 -18 -49 -30 -63 -35 -291 -167 -333
-193 -22 -13 -52 -30 -69 -38 -16 -8 -32 -18 -35 -21 -8 -9 -124 -74 -133 -74
-4 0 -12 -7 -17 -15 -5 -8 -10 -10 -10 -5 0 7 -3 7 -8 0 -4 -6 -25 -19 -47
-30 -22 -11 -42 -23 -45 -26 -8 -10 -75 -43 -82 -41 -5 1 -8 -2 -8 -8 0 -5
-17 -17 -37 -27 -21 -9 -40 -19 -43 -23 -3 -3 -23 -14 -45 -25 -22 -11 -46
-26 -53 -32 -7 -7 -19 -13 -25 -13 -21 -1 -70 -47 -63 -59 4 -6 1 -11 -6 -11
-8 0 -9 -3 -3 -8 6 -4 10 -34 10 -67 0 -33 -4 -63 -10 -67 -7 -5 -7 -8 0 -8 6
0 10 -20 10 -45 0 -25 -4 -45 -10 -45 -7 0 -7 -3 0 -8 6 -4 10 -34 10 -67 0
-33 -4 -63 -10 -67 -7 -5 -7 -8 0 -8 6 0 10 -20 10 -45 0 -25 -4 -45 -10 -45
-7 0 -7 -3 0 -8 6 -4 10 -34 10 -67 0 -33 -4 -63 -10 -67 -7 -5 -7 -8 0 -8 6
0 10 -20 10 -45 0 -25 -4 -45 -10 -45 -7 0 -7 -3 0 -8 6 -4 10 -34 10 -67 0
-33 -4 -63 -10 -67 -7 -5 -7 -8 0 -8 6 0 10 -20 10 -45 0 -25 -4 -45 -10 -45
-7 0 -7 -3 0 -8 6 -4 10 -34 10 -67 0 -33 -4 -63 -10 -67 -7 -5 -7 -8 0 -8 6
0 10 -20 10 -45 0 -25 -4 -45 -10 -45 -7 0 -7 -3 0 -8 6 -4 10 -34 10 -67 0
-33 -4 -63 -10 -67 -7 -5 -7 -8 0 -8 6 0 10 -20 10 -45 0 -25 -4 -45 -10 -45
-7 0 -7 -3 0 -8 6 -4 10 -34 10 -67 0 -33 -4 -63 -10 -67 -7 -5 -7 -8 0 -8 6
0 10 -20 10 -45 0 -25 -4 -45 -10 -45 -7 0 -7 -3 0 -8 6 -4 10 -34 10 -67 0
-33 -4 -63 -10 -67 -7 -5 -7 -8 0 -8 6 0 10 -20 10 -45 0 -25 -4 -45 -10 -45
-7 0 -7 -3 0 -8 6 -4 10 -34 10 -67 0 -33 -4 -63 -10 -67 -7 -5 -7 -8 0 -8 6
0 10 -20 10 -45 0 -25 -4 -45 -10 -45 -7 0 -7 -3 0 -8 6 -4 10 -34 10 -67 0
-33 -4 -63 -10 -67 -7 -5 -7 -8 0 -8 6 0 10 -20 10 -45 0 -25 -4 -45 -10 -45
-7 0 -7 -3 0 -8 6 -4 10 -34 10 -67 0 -33 -4 -63 -10 -67 -7 -5 -7 -8 0 -8 6
0 10 -20 10 -45 0 -25 -4 -45 -10 -45 -7 0 -7 -3 0 -8 6 -4 10 -34 10 -67 0
-33 -4 -63 -10 -67 -7 -5 -7 -8 0 -8 6 0 10 -20 10 -45 0 -25 -4 -45 -10 -45
-7 0 -7 -3 0 -8 6 -4 10 -34 10 -67 0 -33 -4 -63 -10 -67 -7 -5 -7 -8 0 -8 6
0 10 -20 10 -45 0 -25 -4 -45 -10 -45 -7 0 -7 -3 0 -8 6 -4 10 -34 10 -67 0
-33 -4 -63 -10 -67 -7 -5 -7 -8 0 -8 6 0 10 -20 10 -45 0 -25 -4 -45 -10 -45
-7 0 -7 -3 0 -8 6 -4 10 -34 10 -67 0 -33 -4 -63 -10 -67 -7 -5 -7 -8 0 -8 6
0 10 -20 10 -45 0 -25 -4 -45 -10 -45 -7 0 -7 -3 0 -8 6 -4 10 -34 10 -67 0
-33 -4 -63 -10 -67 -7 -5 -7 -8 0 -8 6 0 10 -20 10 -45 0 -25 -4 -45 -10 -45
-7 0 -7 -3 0 -8 6 -4 10 -34 10 -67 0 -33 -4 -63 -10 -67 -7 -5 -7 -8 0 -8 6
0 10 -20 10 -45 0 -25 -4 -45 -10 -45 -7 0 -7 -3 0 -8 6 -4 10 -34 10 -67 0
-33 -4 -63 -10 -67 -7 -5 -7 -8 0 -8 6 0 10 -20 10 -45 0 -25 -4 -45 -10 -45
-7 0 -7 -3 0 -8 6 -4 10 -34 10 -67 0 -33 -4 -63 -10 -67 -7 -5 -7 -8 0 -8 6
0 10 -20 10 -45 0 -25 -4 -45 -10 -45 -7 0 -7 -3 0 -8 6 -4 10 -34 10 -67 0
-33 -4 -63 -10 -67 -7 -5 -7 -8 0 -8 6 0 10 -20 10 -45 0 -25 -4 -45 -10 -45
-7 0 -7 -3 0 -8 6 -4 10 -34 10 -67 0 -33 -4 -63 -10 -67 -7 -5 -7 -8 0 -8 6
0 10 -20 10 -45 0 -25 -4 -45 -10 -45 -7 0 -7 -3 0 -8 6 -4 10 -34 10 -67 0
-33 -4 -63 -10 -67 -7 -5 -7 -8 0 -8 6 0 10 -20 10 -45 0 -25 -4 -45 -10 -45
-7 0 -7 -3 0 -8 6 -4 10 -34 10 -67 0 -33 -4 -63 -10 -67 -7 -5 -7 -8 0 -8 6
0 10 -20 10 -45 0 -25 -4 -45 -10 -45 -7 0 -7 -3 0 -8 6 -4 10 -34 10 -67 0
-33 -4 -63 -10 -67 -7 -5 -7 -8 0 -8 6 0 10 -20 10 -45 0 -25 -4 -45 -10 -45
-7 0 -7 -3 0 -8 6 -4 10 -34 10 -67 0 -33 -4 -63 -10 -67 -7 -5 -7 -8 0 -8 6
0 10 -20 10 -45 0 -25 -4 -45 -10 -45 -7 0 -7 -3 0 -8 6 -4 10 -34 10 -67 0
-33 -4 -63 -10 -67 -7 -5 -7 -8 0 -8 6 0 10 -20 10 -45 0 -25 -4 -45 -10 -45
-7 0 -7 -3 0 -8 6 -4 10 -34 10 -67 0 -33 -4 -63 -10 -67 -7 -5 -7 -8 0 -8 6
0 10 -20 10 -45 0 -25 -4 -45 -10 -45 -7 0 -7 -3 0 -8 6 -4 10 -34 10 -67 0
-33 -4 -63 -10 -67 -7 -5 -7 -8 0 -8 6 0 10 -20 10 -45 0 -25 -4 -45 -10 -45
-7 0 -7 -3 0 -8 6 -4 10 -34 10 -67 0 -33 -4 -63 -10 -67 -7 -5 -7 -8 0 -8 6
0 10 -20 10 -45 0 -25 -4 -45 -10 -45 -7 0 -7 -3 0 -8 6 -4 10 -34 10 -67 0
-33 -4 -63 -10 -67 -7 -5 -7 -8 0 -8 7 0 9 -242 8 -710 l-1 -710 26 -14 c15
-8 38 -21 52 -28 14 -6 43 -24 65 -38 22 -14 51 -31 65 -38 35 -17 64 -35 72
-47 4 -5 8 -6 8 -1 0 5 8 3 18 -5 9 -8 28 -20 41 -27 13 -8 38 -22 55 -31 158
-89 322 -187 324 -193 2 -4 11 -8 20 -8 8 0 23 -6 31 -14 9 -7 36 -25 61 -38
25 -14 101 -57 169 -97 68 -39 127 -71 132 -71 5 0 9 -3 9 -7 0 -5 10 -13 23
-19 34 -16 111 -58 117 -64 5 -5 128 -77 219 -128 25 -14 67 -38 93 -53 27
-16 53 -29 58 -29 6 0 10 -4 10 -10 0 -5 6 -10 14 -10 7 0 19 -7 26 -15 7 -8
16 -12 21 -9 5 3 9 1 9 -4 0 -5 8 -12 18 -15 9 -4 37 -18 62 -33 42 -25 68
-40 131 -76 13 -7 26 -15 29 -18 3 -3 30 -18 60 -34 30 -17 78 -44 105 -61 50
-32 151 -89 192 -109 13 -6 23 -15 23 -19 0 -5 4 -6 9 -3 5 3 14 -1 21 -9 7
-8 16 -15 20 -15 5 0 45 -22 90 -50 45 -27 83 -50 85 -50 2 0 28 -14 57 -31
61 -37 113 -66 209 -121 13 -7 26 -16 29 -19 3 -3 20 -11 38 -18 17 -8 32 -17
32 -22 0 -5 4 -9 9 -9 7 0 128 -66 201 -110 88 -53 295 -170 302 -170 4 0 8
-4 8 -10 0 -5 4 -10 9 -10 12 0 200 -107 222 -126 9 -8 18 -12 21 -9 3 3 11
-1 18 -10 7 -8 16 -15 20 -15 5 0 41 -20 82 -45 40 -24 100 -58 133 -75 33
-16 56 -30 51 -30 -5 0 15 -13 45 -29 30 -16 70 -38 89 -50 19 -11 42 -24 50
-28 8 -3 17 -9 20 -12 4 -5 27 -18 115 -65 11 -6 22 -13 25 -16 3 -3 24 -14
47 -25 24 -11 43 -23 43 -26 0 -3 23 -16 50 -29 28 -13 50 -27 50 -32 0 -4 4
-8 10 -8 5 0 43 -20 84 -44 41 -24 77 -42 80 -38 3 3 6 1 6 -4 0 -5 17 -18 38
-29 20 -11 39 -22 42 -25 5 -5 24 -16 103 -59 95 -52 132 -73 147 -85 8 -6 35
-22 60 -36 25 -13 54 -28 65 -34 11 -6 27 -16 35 -22 8 -6 35 -22 60 -35 25
-13 47 -26 50 -29 3 -3 25 -16 50 -29 80 -43 84 -46 97 -58 7 -6 23 -15 36
-19 12 -3 30 -13 40 -22 9 -8 17 -11 17 -6 0 5 4 4 8 -2 6 -10 179 -114 189
-114 2 0 22 -12 46 -27 23 -15 53 -33 67 -40 14 -7 34 -18 45 -25 64 -40 145
-88 150 -88 2 0 34 -18 70 -40 36 -22 70 -40 75 -40 6 0 10 -5 10 -12 0 -6 3
-8 7 -5 3 4 13 1 22 -6 15 -13 108 -68 201 -119 48 -26 145 -83 170 -98 61
-39 243 -140 251 -140 5 0 9 -4 9 -8 0 -5 23 -19 50 -32 27 -13 50 -28 50 -33
0 -6 3 -8 6 -4 6 5 29 -8 130 -70 10 -7 43 -25 72 -40 28 -15 52 -31 52 -36 0
-4 5 -5 10 -2 6 3 10 3 10 -2 0 -4 15 -14 33 -22 17 -8 34 -17 37 -20 3 -3 18
-13 33 -22 27 -15 31 -14 85 13 32 16 62 36 69 45 6 8 16 12 21 9 6 -3 12 -3
14 2 3 7 38 29 128 79 20 11 91 52 158 92 68 39 125 71 128 71 3 0 25 13 48
30 24 16 46 26 50 23 3 -4 6 -2 6 4 0 6 8 13 18 17 9 3 31 14 47 24 17 11 48
29 70 42 75 41 110 64 117 74 4 6 8 7 8 2 0 -5 9 -1 20 9 11 10 20 15 20 10 0
-4 15 4 33 17 17 14 42 28 55 32 12 4 22 12 22 18 0 6 3 8 7 5 3 -4 13 -1 22
7 9 7 41 26 71 42 30 16 57 32 60 35 7 9 68 40 76 38 4 0 10 3 13 8 5 9 100
66 141 87 8 4 32 17 52 29 104 62 203 117 210 117 4 0 8 5 8 10 0 6 5 10 11
10 13 0 153 82 157 92 2 5 7 6 12 3 4 -3 13 2 20 10 7 8 16 15 21 15 5 0 32
15 61 33 29 18 64 38 78 45 25 12 43 22 91 54 14 10 29 15 33 11 3 -3 6 -2 6
4 0 6 23 21 50 34 28 13 50 27 50 31 0 5 5 8 10 8 6 0 35 16 65 35 30 19 55
32 55 29 0 -3 7 2 16 10 8 9 19 14 24 11 5 -3 10 -1 12 3 3 8 79 55 178 110
25 13 53 32 64 41 10 9 20 15 22 13 3 -2 31 13 63 32 32 20 63 36 69 36 6 0
12 4 14 8 2 4 26 21 53 36 62 35 98 56 253 145 68 39 128 71 133 71 5 0 9 5 9
10 0 6 4 10 10 10 5 0 50 25 101 55 50 30 93 55 95 55 2 0 53 29 114 65 60 36
117 68 127 72 10 4 20 10 23 13 4 6 112 69 200 117 14 8 43 25 65 38 22 14 60
35 85 47 25 13 54 31 64 41 19 16 31 21 49 18 4 0 7 3 7 9 0 5 15 17 33 25 34
16 112 59 137 75 26 17 132 80 135 80 2 0 39 21 82 46 81 49 124 74 183 106
19 11 49 28 65 38 17 10 53 31 80 46 28 14 62 35 78 46 15 11 27 16 27 13 0
-4 7 1 16 9 8 9 22 16 30 16 8 0 14 4 14 10 0 5 11 12 25 16 14 3 25 10 25 14
0 4 8 10 18 13 9 4 37 18 62 33 25 15 59 35 75 44 267 153 321 185 327 194 4
6 8 7 8 3 0 -5 12 0 28 11 15 10 70 43 122 72 52 29 103 60 113 68 9 8 17 11
17 7 0 -4 8 -1 18 7 9 8 42 28 72 44 30 16 57 32 60 35 10 11 145 84 153 81 4
-1 7 2 7 7 0 5 15 16 33 25 17 9 39 21 47 26 51 31 293 170 296 170 2 0 28 16
58 35 30 19 57 35 60 35 2 0 44 24 93 52 129 77 145 86 176 100 15 7 27 16 27
20 0 4 4 8 9 8 13 0 155 82 159 92 2 4 11 8 20 9 10 0 37 15 62 33 l45 33 0
4278 0 4279 -45 26 c-25 14 -65 37 -90 51 -25 13 -47 26 -50 29 -3 3 -25 16
-50 29 -25 14 -51 31 -58 38 -8 7 -18 11 -23 8 -5 -4 -9 -2 -9 3 0 6 -13 15
-30 21 -16 5 -30 15 -30 20 0 6 -6 11 -14 11 -16 0 -139 70 -144 82 -2 5 -12
8 -22 8 -10 0 -20 4 -22 8 -4 10 -234 142 -248 142 -5 0 -10 4 -10 8 0 5 -15
16 -32 25 -18 9 -60 32 -93 52 -33 19 -72 40 -87 46 -16 6 -28 15 -28 19 0 4
-11 11 -25 14 -14 4 -25 11 -25 16 0 6 -6 10 -14 10 -8 0 -22 8 -32 18 -10 9
-20 16 -23 15 -3 0 -49 24 -101 54 -52 31 -108 63 -125 72 -16 9 -33 21 -37
26 -4 6 -8 6 -8 2 0 -5 -7 -1 -16 7 -8 9 -21 16 -28 16 -7 0 -22 9 -34 20 -12
12 -22 18 -22 14 0 -3 -7 -1 -15 6 -16 13 -82 52 -125 73 -14 6 -29 15 -35 20
-30 24 -265 154 -270 149 -3 -3 -5 -1 -5 4 0 5 -17 18 -37 29 -21 11 -40 22
-43 25 -3 3 -23 14 -45 26 -22 12 -80 45 -130 74 -90 53 -125 73 -190 110 -49
28 -89 51 -171 99 -39 22 -76 41 -83 41 -6 0 -11 4 -11 8 0 5 -17 17 -37 29
-71 38 -138 76 -175 100 -21 12 -42 23 -47 23 -5 0 -14 7 -21 15 -7 8 -16 13
-20 10 -5 -3 -10 -2 -12 3 -3 8 -54 39 -153 93 -33 17 -68 39 -77 47 -10 8
-18 11 -18 6 0 -5 -4 -4 -8 2 -11 16 -82 57 -82 47 0 -4 -4 -3 -8 3 -9 13
-109 74 -122 74 -6 0 -10 5 -10 11 0 5 -4 8 -9 4 -5 -3 -12 -1 -15 4 -6 8
-114 74 -126 76 -3 0 -24 13 -47 28 -24 15 -45 27 -47 27 -4 0 -71 39 -201
117 -22 13 -55 30 -72 38 -18 9 -33 20 -33 25 0 6 -3 9 -7 8 -11 -3 -76 32
-85 46 -4 6 -8 7 -8 3 0 -5 -12 1 -26 12 -15 12 -33 21 -40 21 -7 0 -18 8 -23
18 -6 9 -11 13 -11 9 0 -5 -12 0 -27 11 -16 10 -35 22 -43 25 -8 4 -33 18 -55
31 -22 14 -68 40 -102 58 -35 18 -63 36 -63 40 0 5 -4 8 -9 8 -9 0 -229 123
-247 139 -7 5 -15 7 -18 4 -3 -4 -6 -1 -6 5 0 7 -4 12 -10 12 -5 0 -31 13 -57
29 -92 56 -138 82 -155 88 -10 3 -18 9 -18 13 0 4 -10 10 -23 14 -12 3 -32 15
-45 26 -12 11 -22 18 -22 16 0 -3 -24 9 -52 26 -61 36 -113 66 -209 120 -13 7
-26 15 -29 19 -3 3 -21 13 -40 22 -19 10 -44 23 -55 30 -98 61 -127 77 -134
77 -5 0 -16 6 -23 13 -8 6 -29 20 -48 31 -85 45 -145 79 -150 85 -3 4 -27 18
-55 31 -27 14 -52 28 -55 31 -3 4 -25 18 -50 31 -25 14 -61 33 -80 44 -19 10
-37 21 -40 24 -5 5 -20 14 -99 58 -25 14 -47 29 -49 34 -2 4 -12 8 -22 8 -10
0 -22 5 -26 11 -3 6 -21 18 -38 26 -17 8 -56 29 -86 48 -30 19 -67 40 -82 46
-16 6 -28 15 -28 21 0 5 -4 6 -10 3 -5 -3 -10 -1 -10 4 0 6 -5 11 -10 11 -6 0
-40 18 -76 40 -36 22 -68 40 -70 40 -3 0 -23 12 -47 27 -23 15 -45 27 -49 28
-4 0 -13 6 -19 13 -7 6 -19 12 -26 12 -7 0 -13 4 -13 8 0 4 -12 13 -27 19 -16
7 -46 23 -68 37 -22 14 -47 29 -55 33 -15 7 -151 85 -180 103 -115 71 -128 75
-172 45z"/>
<path d="M4060 1411 c0 -6 1 -12 3 -14 1 -2 -6 -11 -15 -21 -30 -30 -22 -46
22 -46 22 0 40 2 40 4 0 2 -7 20 -15 39 -15 36 -35 57 -35 38z"/>
</g>
</svg>
