<svg width="18" height="17" viewBox="0 0 18 17" fill="none" xmlns="http://www.w3.org/2000/svg">
<path d="M13.7709 9.94433C13.6835 9.97307 13.5938 10.0008 13.5024 10.0277C13.3001 9.39169 13.027 8.71533 12.693 8.01663C13.0118 7.33444 13.2743 6.6668 13.471 6.03484C13.6345 6.08191 13.7932 6.13144 13.9462 6.18378C15.4255 6.68942 16.3278 7.43716 16.3278 8.01326C16.3278 8.62695 15.3532 9.42366 13.7709 9.94433Z" fill="white"/>
<path d="M13.1144 11.2363C13.2744 12.0387 13.2972 12.7643 13.1912 13.3315C13.096 13.8411 12.9046 14.1809 12.6678 14.317C12.1641 14.6066 11.0867 14.2301 9.92487 13.2373C9.79165 13.1234 9.65745 13.0019 9.52289 12.8733C9.97333 12.3841 10.4235 11.8153 10.8628 11.1837C11.6357 11.1156 12.3658 11.0042 13.0279 10.8523C13.0604 10.9829 13.0894 11.111 13.1144 11.2363Z" fill="white"/>
<path d="M6.47485 14.2669C5.98267 14.4396 5.59067 14.4445 5.35374 14.3088C4.84946 14.0201 4.63991 12.9051 4.92579 11.4097C4.95979 11.2329 4.99872 11.0572 5.04253 10.8826C5.69728 11.0264 6.42208 11.1299 7.19675 11.1923C7.63899 11.8103 8.10216 12.3784 8.56895 12.8759C8.46974 12.9712 8.36819 13.0641 8.26438 13.1544C7.64415 13.6929 7.02257 14.0748 6.47485 14.2669Z" fill="white"/>
<path d="M4.16902 9.94054C3.38954 9.67595 2.74582 9.33212 2.30457 8.95695C1.90811 8.61971 1.7079 8.28494 1.7079 8.01326C1.7079 7.43526 2.57574 6.69792 4.02314 6.19678C4.20481 6.13415 4.38829 6.07682 4.57334 6.02486C4.77341 6.67101 5.0358 7.3466 5.35247 8.02977C5.0317 8.72313 4.76555 9.40947 4.56364 10.0632C4.43111 10.0255 4.29953 9.98463 4.16902 9.94054Z" fill="white"/>
<path d="M4.94199 4.71556C4.64153 3.19079 4.84104 2.04062 5.34313 1.752C5.87797 1.44456 7.06049 1.88296 8.3069 2.98198C8.38656 3.05224 8.46657 3.1258 8.54673 3.20189C8.08235 3.69712 7.62342 4.26093 7.18501 4.8754C6.43319 4.9446 5.71348 5.05574 5.05186 5.20462C5.01111 5.04252 4.97447 4.8795 4.94199 4.71556Z" fill="white"/>
<path d="M11.8374 6.40642C11.6812 6.13836 11.5191 5.87366 11.3513 5.61253C11.8614 5.67646 12.3501 5.76147 12.8089 5.86552C12.6712 6.30399 12.4995 6.76248 12.2973 7.2325C12.1495 6.95413 11.9962 6.67872 11.8374 6.40642Z" fill="white"/>
<path d="M9.02547 3.68652C9.34043 4.02536 9.65589 4.40376 9.96618 4.81427C9.33676 4.78473 8.70628 4.78459 8.07683 4.81385C8.38741 4.40714 8.70556 4.0293 9.02547 3.68652Z" fill="white"/>
<path d="M6.19548 6.41106C6.03866 6.68119 5.88821 6.95491 5.74426 7.23201C5.54539 6.76361 5.37525 6.30308 5.2363 5.85835C5.6924 5.75697 6.17878 5.67414 6.68554 5.61126C6.5159 5.87402 6.3525 6.14069 6.19548 6.41106Z" fill="white"/>
<path d="M6.70011 10.4637C6.17659 10.4056 5.68285 10.327 5.22689 10.2284C5.36803 9.77586 5.54192 9.30542 5.74504 8.82697C5.8896 9.10427 6.04071 9.37816 6.19824 9.64841C6.35898 9.92408 6.52632 10.1959 6.70011 10.4637Z" fill="white"/>
<path d="M9.04436 12.3879C8.72069 12.0411 8.39788 11.6575 8.08256 11.2448C8.38861 11.2568 8.70067 11.2628 9.01783 11.2628C9.34369 11.2628 9.6658 11.2556 9.98281 11.2415C9.67153 11.6617 9.3572 12.0458 9.04436 12.3879Z" fill="white"/>
<path d="M12.3038 8.80259C12.5174 9.28624 12.6976 9.75415 12.8406 10.1991C12.3771 10.3041 11.8767 10.3887 11.3494 10.4515C11.5184 10.1855 11.682 9.91618 11.8402 9.6437C12.001 9.36678 12.1556 9.08634 12.3038 8.80259Z" fill="white"/>
<path fill-rule="evenodd" clip-rule="evenodd" d="M11.2486 9.30493C11.0065 9.72267 10.7507 10.1325 10.4817 10.5337C10.0074 10.5674 9.5173 10.5847 9.01783 10.5847C8.52041 10.5847 8.03651 10.5693 7.5705 10.5393C7.29455 10.139 7.03395 9.72851 6.78925 9.30865C6.5457 8.89101 6.3182 8.46434 6.10726 8.02956C6.31767 7.59465 6.54447 7.16775 6.7872 6.74977C7.02985 6.3317 7.2884 5.92307 7.5623 5.5245C8.03771 5.4888 8.52515 5.47012 9.0179 5.47012C9.51284 5.47012 10.0009 5.48895 10.4762 5.52492C10.7473 5.92288 11.0042 6.33023 11.2464 6.74619C11.49 7.16324 11.7198 7.58804 11.9355 8.01994C11.722 8.45623 11.4928 8.88483 11.2486 9.30493ZM10.4453 8.01328C10.4453 7.23041 9.80625 6.59571 9.01785 6.59571C8.22953 6.59571 7.5904 7.23041 7.5904 8.01328C7.5904 8.79622 8.22953 9.43092 9.01785 9.43092C9.80625 9.43092 10.4453 8.79622 10.4453 8.01328Z" fill="white"/>
<path d="M12.6574 1.73184C13.1926 2.03844 13.4008 3.27474 13.0645 4.89605C13.0425 5.00167 13.0185 5.10688 12.9926 5.21164C12.3295 5.05968 11.6093 4.94657 10.8553 4.87631C10.416 4.25517 9.96088 3.69038 9.504 3.20153C9.62372 3.08691 9.74629 2.97527 9.8716 2.86669C11.0518 1.84671 12.1548 1.444 12.6574 1.73184Z" fill="white"/>
<path fill-rule="evenodd" clip-rule="evenodd" d="M3.42009 11.3274C1.32741 10.617 0 9.35681 0 8.00683C0 6.69352 1.39802 5.52691 3.42009 4.8268C3.00085 2.69894 3.32876 0.984326 4.47796 0.323703C5.66983 -0.36144 7.31291 0.0997948 9.02639 1.61059C10.6734 0.187194 12.3329 -0.386943 13.4831 0.271783C14.6763 0.955029 15.068 2.59812 14.6057 4.84162C16.6702 5.54742 18 6.68818 18 8.00683C18 9.37458 16.7808 10.4492 14.6011 11.1648C15.0305 13.3193 14.6727 15.1174 13.4962 15.7938C12.3515 16.4518 10.7111 15.9059 9.08801 14.5188C7.42285 15.9643 5.66848 16.4312 4.49091 15.7567C3.34524 15.1006 3.00219 13.4166 3.42009 11.3274ZM13.6539 5.38145C13.8268 5.43083 13.9983 5.48452 14.1685 5.54248C15.895 6.1327 17.0107 7.05728 17.0107 8.01326C17.0107 9.01027 15.8184 9.98508 13.9858 10.588C13.8889 10.6199 13.7896 10.6505 13.6885 10.6802C13.7246 10.8244 13.7568 10.9659 13.7843 11.1045C14.1461 12.9193 13.8675 14.411 13.0101 14.9039C12.1799 15.3811 10.8381 14.9123 9.47949 13.7513C9.33181 13.6248 9.18771 13.4943 9.04737 13.3598C8.93594 13.4668 8.82465 13.5689 8.71379 13.6651C7.31117 14.8827 5.87078 15.3878 5.01255 14.8964C4.18163 14.4204 3.92051 13.0319 4.25485 11.2832C4.29139 11.0932 4.33326 10.9042 4.38043 10.7164C4.23524 10.6753 4.09111 10.6305 3.94817 10.5823C2.1853 9.98395 1.02506 8.99713 1.02506 8.01326C1.02506 7.06072 2.10593 6.14233 3.79833 5.55639C3.9875 5.49091 4.18524 5.42937 4.38998 5.37161C4.34612 5.19737 4.30672 5.02205 4.27183 4.84582C3.92114 3.06622 4.16791 1.64402 5.00102 1.16508C5.86986 0.665626 7.31683 1.20196 8.76042 2.47487C8.85021 2.55422 8.93852 2.63522 9.02529 2.71782C9.15487 2.5936 9.28758 2.47265 9.42331 2.35508C10.8007 1.16473 12.1646 0.66675 12.9985 1.14435C13.8682 1.64233 14.1229 3.15509 13.7334 5.03291C13.7091 5.14957 13.6826 5.26577 13.6539 5.38145Z" fill="white"/>
</svg>
