<svg width="15" height="14" viewBox="0 0 15 14" fill="none" xmlns="http://www.w3.org/2000/svg">
<path d="M11.4758 8.28694C11.403 8.31089 11.3282 8.33401 11.252 8.35644C11.0834 7.82641 10.8559 7.26278 10.5775 6.68053C10.8432 6.11204 11.0619 5.55566 11.2258 5.02903C11.362 5.06826 11.4943 5.10953 11.6218 5.15315C12.8546 5.57451 13.6065 6.19763 13.6065 6.67772C13.6065 7.18913 12.7943 7.85305 11.4758 8.28694Z" fill="white"/>
<path d="M10.9287 9.36356C11.062 10.0323 11.081 10.6369 10.9927 11.1096C10.9133 11.5343 10.7538 11.8174 10.5565 11.9308C10.1367 12.1721 9.23889 11.8584 8.27072 11.031C8.15971 10.9362 8.04787 10.8349 7.93574 10.7278C8.31111 10.32 8.68624 9.84605 9.05235 9.31971C9.69638 9.26298 10.3048 9.17018 10.8566 9.04355C10.8837 9.15244 10.9079 9.25917 10.9287 9.36356Z" fill="white"/>
<path d="M5.39571 11.8891C4.98556 12.033 4.65889 12.0371 4.46145 11.924C4.04122 11.6834 3.86659 10.7542 4.10483 9.50806C4.13316 9.36079 4.1656 9.21432 4.2021 9.06884C4.74773 9.18868 5.35173 9.27492 5.99729 9.32691C6.36582 9.84195 6.7518 10.3154 7.14079 10.7299C7.05812 10.8094 6.97349 10.8867 6.88698 10.962C6.37012 11.4107 5.85214 11.729 5.39571 11.8891Z" fill="white"/>
<path d="M3.47418 8.28378C2.82461 8.06329 2.28818 7.77676 1.92048 7.46412C1.59009 7.1831 1.42325 6.90412 1.42325 6.67772C1.42325 6.19605 2.14645 5.5816 3.35262 5.16398C3.50401 5.1118 3.65691 5.06402 3.81111 5.02072C3.97784 5.55918 4.1965 6.12216 4.46039 6.69148C4.19308 7.26928 3.97129 7.84122 3.80304 8.386C3.69259 8.35461 3.58294 8.32053 3.47418 8.28378Z" fill="white"/>
<path d="M4.11833 3.92964C3.86795 2.65899 4.0342 1.70051 4.45261 1.46C4.89831 1.2038 5.88374 1.56913 6.92242 2.48499C6.9888 2.54353 7.05548 2.60483 7.12227 2.66824C6.73529 3.08094 6.35285 3.55078 5.98751 4.06283C5.36099 4.1205 4.76124 4.21312 4.20989 4.33718C4.17592 4.2021 4.14539 4.06625 4.11833 3.92964Z" fill="white"/>
<path d="M9.86452 5.33869C9.73429 5.1153 9.59923 4.89472 9.45944 4.67711C9.88451 4.73038 10.2917 4.80123 10.6741 4.88793C10.5593 5.25333 10.4162 5.6354 10.2477 6.02708C10.1246 5.79511 9.99686 5.5656 9.86452 5.33869Z" fill="white"/>
<path d="M7.52122 3.0721C7.78369 3.35447 8.04658 3.6698 8.30515 4.01189C7.78063 3.98728 7.25523 3.98716 6.73069 4.01154C6.98951 3.67261 7.25463 3.35775 7.52122 3.0721Z" fill="white"/>
<path d="M5.1629 5.34255C5.03222 5.56766 4.90684 5.79576 4.78688 6.02667C4.62116 5.63634 4.47937 5.25256 4.36358 4.88196C4.74367 4.79748 5.14898 4.72845 5.57128 4.67605C5.42992 4.89501 5.29375 5.11724 5.1629 5.34255Z" fill="white"/>
<path d="M5.58343 8.71972C5.14716 8.67136 4.73571 8.60585 4.35574 8.52371C4.47336 8.14655 4.61827 7.75452 4.78753 7.35581C4.908 7.5869 5.03392 7.81514 5.1652 8.04034C5.29915 8.27007 5.4386 8.49659 5.58343 8.71972Z" fill="white"/>
<path d="M7.53697 10.3233C7.26725 10.0342 6.99823 9.71455 6.73547 9.37071C6.99051 9.38066 7.25056 9.3857 7.51486 9.3857C7.78641 9.3857 8.05483 9.37967 8.31901 9.36796C8.0596 9.71807 7.79767 10.0382 7.53697 10.3233Z" fill="white"/>
<path d="M10.2532 7.33549C10.4312 7.73853 10.5813 8.12846 10.7005 8.49923C10.3142 8.58676 9.89724 8.65725 9.45785 8.70959C9.59865 8.48792 9.735 8.26348 9.86682 8.03642C10.0008 7.80565 10.1296 7.57195 10.2532 7.33549Z" fill="white"/>
<path fill-rule="evenodd" clip-rule="evenodd" d="M9.37384 7.75411C9.17204 8.10222 8.95891 8.44373 8.73476 8.77809C8.33952 8.80614 7.93108 8.8206 7.51486 8.8206C7.10034 8.8206 6.69709 8.80778 6.30875 8.78278C6.07879 8.4492 5.86162 8.10709 5.65771 7.75721C5.45475 7.40918 5.26517 7.05362 5.08938 6.6913C5.26472 6.32887 5.45373 5.97312 5.656 5.62481C5.85821 5.27642 6.07367 4.9359 6.30191 4.60375C6.69809 4.574 7.10429 4.55843 7.51492 4.55843C7.92737 4.55843 8.3341 4.57412 8.73016 4.6041C8.9561 4.93574 9.17018 5.27519 9.37201 5.62182C9.57497 5.96936 9.7665 6.32337 9.94629 6.68328C9.76835 7.04686 9.57737 7.40402 9.37384 7.75411ZM8.70442 6.67773C8.70442 6.02534 8.17188 5.49643 7.51488 5.49643C6.85794 5.49643 6.32534 6.02534 6.32534 6.67773C6.32534 7.33018 6.85794 7.8591 7.51488 7.8591C8.17188 7.8591 8.70442 7.33018 8.70442 6.67773Z" fill="white"/>
<path d="M10.5478 1.4432C10.9939 1.6987 11.1674 2.72895 10.8871 4.08004C10.8687 4.16806 10.8488 4.25574 10.8272 4.34304C10.2746 4.2164 9.67439 4.12214 9.04604 4.06359C8.67999 3.54598 8.30073 3.07532 7.92 2.66795C8.01977 2.57243 8.12191 2.47939 8.22633 2.38891C9.20982 1.53892 10.129 1.20333 10.5478 1.4432Z" fill="white"/>
<path fill-rule="evenodd" clip-rule="evenodd" d="M2.85008 9.43947C1.10618 8.8475 0 7.79734 0 6.67235C0 5.57793 1.16502 4.60576 2.85008 4.02233C2.50071 2.24912 2.77397 0.820271 3.73164 0.269752C4.72486 -0.3012 6.09409 0.0831624 7.52199 1.34216C8.89447 0.155995 10.2774 -0.322453 11.2359 0.226486C12.2302 0.795857 12.5567 2.1651 12.1714 4.03469C13.8918 4.62285 15 5.57348 15 6.67235C15 7.81215 13.984 8.70763 12.1676 9.30399C12.5254 11.0994 12.2273 12.5979 11.2468 13.1615C10.2929 13.7098 8.92595 13.2549 7.57334 12.099C6.18571 13.3036 4.72374 13.6926 3.74242 13.1306C2.7877 12.5838 2.50183 11.1805 2.85008 9.43947ZM11.3782 4.48454C11.5223 4.52569 11.6653 4.57043 11.8071 4.61873C13.2458 5.11059 14.1756 5.88106 14.1756 6.67771C14.1756 7.50856 13.182 8.3209 11.6548 8.82335C11.5741 8.84993 11.4914 8.87545 11.4071 8.90016C11.4371 9.0203 11.464 9.13827 11.487 9.25379C11.7884 10.7661 11.5563 12.0091 10.8417 12.4199C10.1499 12.8176 9.03175 12.4269 7.89957 11.4594C7.77651 11.354 7.65643 11.2452 7.53947 11.1331C7.44662 11.2223 7.35388 11.3074 7.2615 11.3876C6.09264 12.4022 4.89231 12.8232 4.17712 12.4136C3.48469 12.017 3.26709 10.8599 3.54571 9.40267C3.57616 9.2443 3.61105 9.08681 3.65036 8.93037C3.52937 8.89607 3.40926 8.85879 3.29014 8.81855C1.82109 8.31996 0.854218 7.49761 0.854218 6.67771C0.854218 5.88393 1.75494 5.11861 3.16527 4.63032C3.32292 4.57576 3.4877 4.52447 3.65832 4.47635C3.62177 4.33114 3.58894 4.18504 3.55986 4.03818C3.26762 2.55518 3.47325 1.37001 4.16751 0.970899C4.89155 0.554688 6.09736 1.00164 7.30035 2.06239C7.37518 2.12852 7.44877 2.19601 7.52108 2.26485C7.62906 2.16133 7.73965 2.06054 7.85276 1.96257C9.00062 0.970606 10.1372 0.555625 10.8321 0.953628C11.5569 1.36861 11.7691 2.62924 11.4445 4.19409C11.4242 4.2913 11.4021 4.38814 11.3782 4.48454Z" fill="white"/>
</svg>
