<svg width="25" height="25" viewBox="0 0 25 25" fill="none" xmlns="http://www.w3.org/2000/svg">
<path d="M19.0529 6.38368C17.3703 3.98937 14.0643 3.27954 11.6664 4.80188L7.47595 7.47544C6.62229 8.01169 5.95868 8.80259 5.57888 9.73643C5.45348 10.0454 5.3605 10.3667 5.30143 10.6949C5.25109 10.9702 5.22397 11.2492 5.22036 11.529C5.20912 12.3722 5.40786 13.2049 5.79867 13.9521C5.71039 14.0873 5.62752 14.2278 5.55185 14.3719C5.47619 14.516 5.40953 14.6638 5.34827 14.8097C5.28738 14.9605 5.23446 15.1145 5.18973 15.2709C5.1465 15.4276 5.10866 15.5862 5.07984 15.7447C4.95943 16.4196 4.97536 17.1118 5.12668 17.7805C5.27711 18.4471 5.55951 19.0768 5.95721 19.6325C7.63088 22.0268 10.9458 22.7367 13.3275 21.2143L17.5252 18.5516C17.8068 18.3729 18.0694 18.1658 18.3089 17.9336C18.5494 17.7027 18.7645 17.4467 18.9502 17.1698C19.325 16.6159 19.5802 15.9901 19.6997 15.3322C19.8005 14.7812 19.8078 14.2172 19.7213 13.6639C19.68 13.3868 19.6149 13.1137 19.5268 12.8478C19.4387 12.5825 19.3297 12.3246 19.2007 12.0767C19.2889 11.9416 19.3808 11.801 19.4475 11.6569C19.5236 11.5107 19.5916 11.3603 19.6511 11.2065C19.712 11.0557 19.7649 10.9017 19.8096 10.7453C19.8546 10.5886 19.8925 10.43 19.9213 10.2715C19.9803 9.93554 20.0062 9.59462 19.9988 9.2536C19.9916 8.91277 19.95 8.57354 19.8745 8.24111C19.7259 7.57771 19.4466 6.95057 19.0529 6.39629" fill="#717171"/>
<path d="M11.2648 19.863C10.6041 20.0347 9.90667 19.9996 9.26655 19.7625C8.62642 19.5254 8.07443 19.0977 7.68504 18.537C7.56496 18.3676 7.46234 18.1866 7.37877 17.9965C7.29574 17.8099 7.23118 17.6156 7.186 17.4164C7.09638 17.0174 7.08841 16.6043 7.16258 16.2021C7.16258 16.1697 7.17339 16.1373 7.18059 16.1049C7.1878 16.0724 7.19681 16.04 7.20401 16.0076L7.23104 15.9103C7.24005 15.8779 7.25086 15.8472 7.26166 15.8148L7.34274 15.5734L7.55712 15.7337C7.68143 15.8256 7.80935 15.9139 7.93906 15.9895C8.06877 16.0652 8.20389 16.1427 8.34262 16.2111C8.48134 16.2796 8.61826 16.3409 8.76058 16.3913C8.90291 16.4417 9.04704 16.4976 9.19477 16.5408L9.35511 16.5877L9.34069 16.7498C9.33321 16.8591 9.34479 16.9688 9.37492 17.0741C9.38957 17.1268 9.40886 17.178 9.43258 17.2272C9.45622 17.2773 9.48457 17.3249 9.51725 17.3696C9.57542 17.453 9.64588 17.5271 9.72623 17.5894C9.80675 17.6524 9.89674 17.7022 9.99287 17.7371C10.0888 17.7728 10.1897 17.7934 10.2919 17.7983C10.3904 17.8049 10.4894 17.797 10.5856 17.7749C10.6089 17.7694 10.6318 17.7621 10.654 17.7533L10.7189 17.7281L10.782 17.6975L10.8432 17.6632L15.0373 14.9897C15.0888 14.9571 15.137 14.9197 15.1814 14.878C15.2238 14.8351 15.2624 14.7887 15.2967 14.7392C15.3308 14.6888 15.3598 14.6351 15.3832 14.5789C15.405 14.5205 15.4212 14.4602 15.4319 14.3987C15.4427 14.3393 15.4475 14.279 15.4463 14.2186C15.4447 14.1579 15.4368 14.0975 15.4228 14.0384C15.4104 13.9762 15.3904 13.9157 15.3634 13.8583C15.3385 13.8023 15.3077 13.7492 15.2715 13.6997C15.2132 13.6153 15.1421 13.5406 15.0607 13.4781C14.8988 13.3521 14.7018 13.2791 14.4968 13.2692C14.3944 13.264 14.2917 13.2743 14.1924 13.2998C14.1696 13.3053 14.1474 13.3126 14.1257 13.3214L14.0608 13.3466L13.996 13.3773L13.9347 13.4133L12.3259 14.4348C12.2611 14.4762 12.1926 14.5159 12.1241 14.5519C12.0557 14.5879 11.9854 14.6221 11.9152 14.6528C11.8449 14.6834 11.771 14.714 11.6972 14.7392C11.6233 14.7645 11.5494 14.7879 11.4756 14.8077C11.1476 14.8923 10.8086 14.9264 10.4703 14.9086C10.1315 14.8924 9.7972 14.8237 9.47942 14.705C9.16454 14.5867 8.86935 14.4215 8.60385 14.215C8.33682 14.0066 8.10243 13.7594 7.90843 13.4817C7.78991 13.3117 7.68795 13.1307 7.60397 12.9413C7.35163 12.3764 7.27565 11.7485 7.38597 11.1397C7.45622 10.7428 7.60892 10.3651 7.83421 10.0308C8.0595 9.69663 8.35237 9.41337 8.69392 9.19937L12.8916 6.53303C12.9565 6.49159 13.0231 6.45196 13.0916 6.41592C13.1601 6.37989 13.2303 6.34566 13.3006 6.31504C13.3708 6.28441 13.4429 6.25558 13.5168 6.22856C13.5906 6.20154 13.6627 6.17992 13.7384 6.1601C14.3984 5.98885 15.0951 6.02406 15.7345 6.26099C16.3748 6.49861 16.9269 6.92681 17.3163 7.48787C17.4358 7.65412 17.5378 7.83221 17.6208 8.01934C17.7052 8.20621 17.7704 8.40118 17.8154 8.60125C17.9067 9.00176 17.9165 9.41654 17.8442 9.82092L17.8226 9.92001C17.8226 9.95244 17.8081 9.98487 17.7991 10.0173C17.7901 10.0497 17.7829 10.084 17.7739 10.1146C17.7649 10.1452 17.7541 10.1794 17.7433 10.2119L17.664 10.4533L17.4496 10.2929C17.3253 10.2011 17.1974 10.1128 17.0659 10.0353C16.9344 9.95784 16.8011 9.88037 16.6623 9.81191C16.3882 9.67509 16.1031 9.5612 15.8102 9.47141L15.648 9.42457L15.6625 9.26423C15.6679 9.20911 15.6679 9.1536 15.6625 9.09848C15.6572 9.04375 15.6476 8.98953 15.6336 8.93634C15.6179 8.88347 15.5986 8.83171 15.576 8.78141C15.5519 8.7316 15.5236 8.68398 15.4913 8.63908C15.433 8.55681 15.3626 8.4839 15.2823 8.42289C15.2016 8.36204 15.1124 8.31347 15.0175 8.27876C14.8262 8.20879 14.618 8.19935 14.4212 8.25174C14.3978 8.25704 14.3749 8.26427 14.3527 8.27336L14.2878 8.29858L14.223 8.32921L14.1617 8.36524L9.96224 11.0262C9.91057 11.0584 9.86281 11.0965 9.81992 11.1397C9.77614 11.1817 9.73689 11.2282 9.70281 11.2784C9.66965 11.3285 9.6413 11.3815 9.61814 11.4369C9.59469 11.4949 9.57777 11.5554 9.56769 11.6171C9.55773 11.6766 9.55291 11.7369 9.55328 11.7973C9.55721 11.9216 9.58536 12.044 9.63615 12.1576C9.66147 12.2139 9.69225 12.2676 9.72803 12.3179C9.78626 12.4007 9.85672 12.4742 9.93702 12.5359C10.0169 12.5989 10.1063 12.6488 10.2019 12.6836C10.3926 12.7554 10.6008 12.7667 10.7982 12.7161L10.8666 12.6963L10.9315 12.6692C10.9534 12.6608 10.9745 12.6506 10.9945 12.6386L11.0558 12.6044L12.6664 11.5847C12.7314 11.5412 12.7987 11.5015 12.8682 11.4658C12.9367 11.4279 13.0069 11.3937 13.0772 11.3631C13.1474 11.3325 13.2213 11.3036 13.2952 11.2784C13.369 11.2532 13.4429 11.2298 13.5186 11.2081C14.0124 11.0799 14.529 11.0666 15.0288 11.1693C15.5285 11.2721 15.998 11.4881 16.4011 11.8009C16.669 12.0083 16.9035 12.2556 17.0965 12.5341C17.2159 12.7039 17.3185 12.8849 17.4028 13.0746C17.57 13.4512 17.6612 13.8571 17.6712 14.269C17.6764 14.4743 17.6607 14.6795 17.6244 14.8816C17.5884 15.079 17.5323 15.2721 17.4568 15.4581C17.3829 15.6478 17.2887 15.829 17.1758 15.9986C16.9497 16.3322 16.6572 16.6156 16.3164 16.8309L12.1169 19.4936C12.0503 19.5351 11.9836 19.5747 11.9152 19.6125C11.8467 19.6504 11.7764 19.6828 11.7044 19.7134C11.6332 19.746 11.5605 19.7748 11.4864 19.7999C11.4143 19.8251 11.3387 19.8485 11.2648 19.8684" fill="white"/>
</svg>
